<svg width="154" height="57" viewBox="0 0 154 57" fill="none" xmlns="http://www.w3.org/2000/svg">
<g clip-path="url(#clip0_365_690)">
<path d="M25.63 14.29L25 14.39C24.69 13.73 24.25 13.15 23.71 12.66L23.49 12.8C23.55 12.62 23.63 12.43 23.72 12.26C26.55 14.26 28.93 9.49 28.03 6.45C24.91 6.29 20.92 9.63 23.3 11.91C23.09 12.39 22.91 12.89 22.76 13.39C22.06 14.07 21.53 14.9 21.19 15.81C21.19 15.08 21.04 14.35 20.75 13.68C19.78 13.78 18.86 14.13 18.06 14.68C18.14 14.06 18.3 13.46 18.54 12.88C21.07 13.07 21.54 10.49 20.77 8.2C23.64 9.12 25.01 4.34 23.68 1.61C21.47 1.91 19.12 4.03 18.93 5.83C18.76 5.95 18.59 6.07 18.43 6.21C19.19 4.53 18.28 1.58 16.56 0.21C13.89 1.9 12.56 7.01 15.94 7.42C15.86 7.6 15.77 7.79 15.69 8.01C14.72 6.81 13.33 6.02 11.81 5.78C11.14 7.38 11.16 9.19 11.87 10.78C11.42 10.38 10.9 10.07 10.34 9.84C10.24 9.96 10.15 10.09 10.06 10.23C9.48 9.34 9.19 8.29 9.25 7.23C12.66 7.23 11.89 1.97 9.41 0C6.79 1.64 5.41 6.56 8.56 7.17C8.62 7.71 8.71 8.24 8.84 8.77C7.29 7.44 5.17 6.98 3.21 7.54C3.24 9.07 3.84 10.54 4.89 11.66C3.17 11.35 1.39 11.77 0 12.83C1 15.62 5.3 17.83 6.7 15.41C7.85 15.96 9.5 16.24 10.4 17.41C9.46 17.68 8.6 18.18 7.91 18.88C8.65 20.18 9.84 21.16 11.25 21.65L10.47 21.83C9.96 21.42 9.29 21.28 8.66 21.43C9.27 18.7 4.59 17.53 2 18.91C2.39 21.02 3.88 22.77 5.91 23.48C5.3 24.22 4.89 25.09 4.72 26.03C7.23 27.34 11.57 26.34 11.48 23.87C12.18 23.62 12.9 23.45 13.64 23.35C13.19 24.84 13.32 26.45 14 27.85C14.3 27.8 14.59 27.72 14.87 27.62V28.75V31.05H17.7C17.61 30.5 17.56 29.95 17.53 29.39V25.7C18.08 25.08 18.43 24.31 18.53 23.49L19.09 23.59C20.03 25.52 21.94 26.8 24.09 26.92C25.09 24.37 23.71 20.36 21.41 20.43C22.28 19.99 23.3 19.99 24.17 20.43C24.17 23.24 28.97 23.43 31.26 21.54C30.42 19.22 27.37 17.26 25.53 18.04C25.73 16.96 25.61 15.85 25.18 14.84H25.59C25.8 17.99 30.84 17.29 32.81 14.91C31.19 12.18 26 10.74 25.63 14.29ZM7 14.78V14.68C7.2 14.08 7.14 13.42 6.83 12.86C7.69 13 8.55 12.6 9.01 11.86C9.24 11.56 9.4 11.22 9.49 10.86C9.52 10.93 9.55 11 9.57 11.08C8.82 12.65 8.85 14.48 9.64 16.03C8.78 15.56 7.9 15.15 7 14.78ZM16.63 7.43C16.95 7.42 17.26 7.33 17.54 7.18C17.05 7.84 16.69 8.59 16.47 9.39C16.37 9.07 16.22 8.77 16.04 8.49C16.17 8.1 16.37 7.75 16.63 7.43ZM11.24 16.96C11.41 16.97 11.59 16.97 11.76 16.96L11.88 17.19H11.6L11.24 16.96ZM11.41 23.44C11.36 23.2 11.27 22.97 11.16 22.76C11.07 22.58 10.96 22.4 10.83 22.24C11.57 22.12 12.33 22.17 13.05 22.38C13.42 22.59 12.32 23.09 11.41 23.44ZM14.77 20.91C14.84 20.78 14.9 20.63 14.95 20.49L15.7 20.7L14.77 20.91ZM16.33 19.3L16.06 19.94L15.11 19.51C15.11 17.97 13.97 17.25 12.51 17.17C12.51 17.05 12.42 16.92 12.37 16.79C14.37 16.12 14.25 14 13.12 12.23C13.69 12.54 14.37 12.56 14.96 12.28C15.44 13.53 16.07 14.71 16.83 15.81C15.87 16.93 15.48 18.28 16.33 19.3ZM15.73 12.03C15.73 12.03 15.73 11.93 15.73 11.88C16 11.68 16.22 11.43 16.39 11.14C16.5 11.99 17.15 12.68 18 12.84C17.75 13.49 17.54 14.16 17.38 14.84C16.5 14.14 15.91 13.14 15.73 12.03ZM20.56 20.29C18.38 21.66 17.41 20.34 17.41 20.34V20.12C19.09 20.87 20.34 19.65 20.88 17.92C20.94 18.58 21.31 19.18 21.88 19.53C21.58 19.65 21.17 19.89 20.56 20.27V20.29ZM24.25 19.95L24 19.8C24.1 19.78 24.19 19.75 24.28 19.71C24.27 19.78 24.26 19.86 24.25 19.93V19.95Z" fill="#1D1D1B"/>
<path d="M14.6299 29.4599C14.6899 28.9699 14.3499 28.5299 13.8599 28.4699C13.8099 28.4699 13.7699 28.4699 13.7199 28.4699H12.8599C12.3699 28.4599 11.9599 28.8399 11.9399 29.3299C11.9399 29.3799 11.9399 29.4199 11.9399 29.4699V30.2599V31.1299H14.6199V29.4699L14.6299 29.4599Z" fill="#1D1D1B"/>
<path d="M11.95 49.7099H14.63V49.3499V48.7499V47.7599V33.3799V32.3999V32.1699H11.95V49.7099Z" fill="#1D1D1B"/>
<path d="M12 51.77C11.96 52.28 12.33 52.72 12.84 52.77C12.86 52.77 12.89 52.77 12.91 52.77H13.77C14.28 52.77 14.69 52.35 14.68 51.84C14.68 51.82 14.68 51.79 14.68 51.77V50.77H12V51.77Z" fill="#1D1D1B"/>
<path d="M18.63 35.4999C18.42 34.1399 18.16 33.1599 17.96 32.1699H15.07C15.25 33.1699 15.52 33.9899 15.7 34.7499C16.29 36.9299 16.63 39.1699 16.7 41.4299C16.7 42.6799 16.54 43.9199 16.22 45.1299C15.7 46.6199 15.29 48.1499 15 49.7099H17.8C17.96 48.9299 18.17 48.1599 18.43 47.4099C18.66 46.7899 18.85 46.1599 19 45.5199C19.25 44.2699 19.4 42.9999 19.43 41.7299C19.38 39.6299 19.11 37.5399 18.63 35.4999Z" fill="#1D1D1B"/>
<path d="M14.87 51.77C14.83 52.28 15.22 52.73 15.73 52.77C15.75 52.77 15.78 52.77 15.8 52.77H16.66C17.17 52.77 17.59 52.37 17.59 51.86C17.59 51.83 17.59 51.8 17.59 51.77V50.75H14.88C14.87 51.12 14.87 51.58 14.87 51.77Z" fill="#1D1D1B"/>
<path d="M131 38.38C130.27 38.37 129.67 38.95 129.66 39.68C129.66 39.69 129.66 39.71 129.66 39.72C129.64 40.47 130.24 41.09 130.99 41.11C130.99 41.11 130.99 41.11 131 41.11C131.75 41.09 132.35 40.47 132.35 39.72C132.35 38.98 131.75 38.38 131.01 38.38C131.01 38.38 131.01 38.38 131 38.38Z" fill="#1D1D1B"/>
<path d="M142.29 48.3399C141.87 48.3199 141.48 48.5499 141.29 48.9199C140.95 49.6499 140.21 50.1099 139.4 50.0799C138.32 50.0799 137.44 49.2299 137.4 48.1499V46.3299C137.44 45.2799 138.33 44.4699 139.38 44.5099H139.4C140.19 44.4799 140.92 44.9199 141.27 45.6299C141.46 45.9999 141.85 46.2299 142.27 46.1999C142.95 46.1999 143.51 45.6399 143.5 44.9499C143.5 44.9399 143.5 44.9199 143.5 44.9099C143.5 43.8499 142.1 42.0899 139.31 42.0899C137.01 41.9299 135.02 43.6499 134.83 45.9499C134.77 46.8099 134.77 47.6699 134.83 48.5299C135.01 50.8499 136.99 52.6099 139.31 52.5299C142.08 52.5299 143.52 50.7299 143.52 49.6699C143.58 48.9899 143.07 48.3999 142.39 48.3399C142.36 48.3399 142.32 48.3399 142.29 48.3399Z" fill="#1D1D1B"/>
<path d="M131 42.15C130.31 42.14 129.74 42.69 129.73 43.38C129.73 43.4 129.73 43.43 129.73 43.45V51.14C129.73 51.85 130.29 52.43 131 52.45C131.71 52.45 132.28 51.87 132.27 51.16C132.27 51.16 132.27 51.15 132.27 51.14V43.45C132.29 42.75 131.73 42.17 131.03 42.15C131.02 42.15 131.01 42.15 131 42.15Z" fill="#1D1D1B"/>
<path d="M150.31 46.3301L149 46.0301C148.15 45.8401 147.86 45.5701 147.86 45.1801C147.86 44.7901 148.26 44.3601 149.21 44.3601C149.78 44.3801 150.34 44.5201 150.85 44.7801C151.37 45.1101 152.05 45.0501 152.5 44.6301C152.94 44.1401 152.89 43.3901 152.4 42.9501C152.4 42.9501 152.4 42.9501 152.39 42.9501C151.47 42.3501 150.39 42.0501 149.3 42.1001C147.09 42.1001 145.44 43.2201 145.44 45.2601C145.44 46.8901 146.65 47.7601 148.2 48.1601C148.94 48.3501 148.92 48.3301 149.6 48.4801C150.28 48.6301 150.7 48.9501 150.7 49.3701C150.7 49.7901 150.25 50.2401 149.26 50.2401C148.47 50.2401 147.69 50.0301 147.01 49.6201C146.51 49.2201 145.78 49.3101 145.38 49.8101C145.38 49.8101 145.37 49.8301 145.36 49.8401C145.02 50.3401 145.12 51.0201 145.59 51.4101C146.63 52.2001 147.91 52.5901 149.21 52.5101C151.4 52.5101 153.16 51.3401 153.16 49.2201C153.13 47.7201 152.21 46.7801 150.31 46.3401V46.3301Z" fill="#1D1D1B"/>
<path d="M125.61 38.76C124.9 38.76 124.33 39.34 124.34 40.05C124.34 40.05 124.34 40.05 124.34 40.06V42.56C123.63 42.27 122.87 42.11 122.1 42.09C119.96 41.97 118.13 43.6 118.01 45.74C118.01 45.81 118.01 45.88 118.01 45.95C117.95 46.82 117.95 47.69 118.01 48.56C118.14 50.87 120.11 52.63 122.41 52.51C122.44 52.51 122.47 52.51 122.5 52.51C123.92 52.51 125.31 52.11 126.5 51.34C126.81 51.16 126.99 50.81 126.96 50.45V40.04C126.96 39.34 126.39 38.77 125.69 38.77C125.67 38.77 125.64 38.77 125.62 38.77L125.61 38.76ZM124.34 49.49C123.8 49.86 123.16 50.07 122.5 50.08C121.51 50.19 120.61 49.47 120.51 48.47C120.5 48.38 120.5 48.28 120.51 48.19C120.47 47.58 120.47 46.96 120.51 46.35C120.43 45.41 121.12 44.59 122.06 44.51C122.16 44.51 122.26 44.51 122.36 44.51C123.06 44.51 123.74 44.69 124.36 45.02V49.49H124.34Z" fill="#1D1D1B"/>
<path d="M52.1401 42.2399C51.6001 42.1299 51.0601 42.0799 50.5101 42.0899C48.8601 41.8999 47.3801 43.0799 47.1901 44.7299C47.1701 44.9299 47.1601 45.1299 47.1901 45.3299V51.1599C47.1901 51.8699 47.7501 52.4399 48.4601 52.4499C49.1601 52.4499 49.7201 51.8899 49.7201 51.1899C49.7201 51.1799 49.7201 51.1699 49.7201 51.1599V45.7999C49.7201 44.9299 50.0801 44.5899 50.7201 44.5699C51.3601 44.5499 51.7201 44.7399 52.1401 44.7399C52.8001 44.7399 53.3301 44.2099 53.3301 43.5499C53.3101 42.8799 52.8101 42.3299 52.1501 42.2399H52.1401Z" fill="#1D1D1B"/>
<path d="M59.7901 49.91C59.4101 50.03 59.0101 50.1 58.6101 50.12C57.7801 50.12 57.3801 49.62 57.3801 48.72V44.82H59.7501C60.3701 44.82 60.8701 44.32 60.8701 43.7C60.8701 43.08 60.3701 42.58 59.7501 42.58H57.3801V41.3C57.3801 40.6 56.8101 40.03 56.1101 40.03C55.4101 40.03 54.8401 40.6 54.8401 41.3V48.77C54.8401 50.89 55.9101 52.5 58.2501 52.5C59.0401 52.52 59.8201 52.39 60.5601 52.1C61.0301 51.94 61.3501 51.49 61.3601 50.99C61.3601 50.35 60.8401 49.83 60.1901 49.84C60.0501 49.84 59.9101 49.87 59.7901 49.91Z" fill="#1D1D1B"/>
<path d="M67.94 42.09C67.09 42.07 66.25 42.33 65.56 42.83V40.03C65.56 39.32 64.99 38.75 64.28 38.75C63.57 38.75 63 39.32 63 40.03V51.14C63 51.86 63.57 52.44 64.29 52.45C64.99 52.45 65.55 51.88 65.54 51.18C65.54 51.17 65.54 51.15 65.54 51.14V45.37C66.07 44.85 66.79 44.56 67.54 44.57C68.43 44.51 69.19 45.19 69.25 46.08C69.25 46.18 69.25 46.28 69.25 46.37V51.1C69.25 51.8 69.82 52.37 70.52 52.37C71.22 52.37 71.79 51.8 71.79 51.1V46.24C71.78 43.53 70.36 42.09 67.95 42.09H67.94Z" fill="#1D1D1B"/>
<path d="M111.64 42.0899C109.3 41.9599 107.3 43.7499 107.17 46.0899C107.12 46.8799 107.12 47.6699 107.17 48.4599C107.31 50.8099 109.34 52.6099 111.69 52.4599C111.7 52.4599 111.72 52.4599 111.73 52.4599C112.81 52.4999 113.88 52.2699 114.85 51.7999C115.25 51.5999 115.51 51.1899 115.5 50.7399C115.5 50.1099 114.98 49.5999 114.35 49.6099C114.17 49.6099 113.99 49.6599 113.83 49.7399C113.19 49.9899 112.52 50.1299 111.83 50.1499C110.56 50.1499 109.65 49.5099 109.65 48.3199V48.1299H114.65C115.29 48.2099 115.87 47.7599 115.95 47.1299C115.96 47.0399 115.96 46.9499 115.95 46.8599V46.4399C116.08 44.1699 114.34 42.2199 112.07 42.0899C111.93 42.0899 111.78 42.0899 111.64 42.0899ZM113.32 46.4399H109.63C109.48 45.4099 110.2 44.4499 111.24 44.2999C111.37 44.2799 111.5 44.2799 111.63 44.2899C112.58 44.1899 113.43 44.8899 113.52 45.8399C113.53 45.9699 113.53 46.0899 113.52 46.2199C113.54 46.3199 113.47 46.4199 113.36 46.4399C113.35 46.4399 113.33 46.4399 113.32 46.4399Z" fill="#1D1D1B"/>
<path d="M78.6199 42.0901C76.3099 41.9401 74.2999 43.6501 74.0799 45.9501C74.0199 46.8501 74.0199 47.7601 74.0799 48.6601C74.5099 51.1601 76.8799 52.8501 79.3899 52.4201C81.3199 52.0901 82.8299 50.5801 83.1499 48.6601C83.1999 47.7601 83.1999 46.8701 83.1499 45.9701C82.9499 43.6601 80.9299 41.9301 78.6199 42.0901ZM80.6199 48.2401C80.6199 49.3401 79.7199 50.2401 78.6199 50.2401C77.5199 50.2401 76.6199 49.3401 76.6199 48.2401C76.5799 47.6101 76.5799 46.9801 76.6199 46.3501C76.6499 45.3001 77.5299 44.4801 78.5799 44.5101C78.5899 44.5101 78.6099 44.5101 78.6199 44.5101C79.6599 44.4401 80.5499 45.2301 80.6199 46.2701C80.6199 46.3001 80.6199 46.3301 80.6199 46.3501C80.6599 46.9801 80.6699 47.6101 80.6199 48.2401Z" fill="#1D1D1B"/>
<path d="M40.3599 42.0899C38.0499 41.9399 36.0399 43.6499 35.8199 45.9499C35.7599 46.8499 35.7599 47.7599 35.8199 48.6599C36.0499 50.9499 38.0599 52.6499 40.3599 52.4999C42.6699 52.6599 44.6799 50.9399 44.8899 48.6399C44.9399 47.7399 44.9399 46.8499 44.8899 45.9499C44.6799 43.6499 42.6699 41.9299 40.3599 42.0899ZM42.3599 48.2399C42.3399 49.2799 41.4799 50.0999 40.4399 50.0799C40.4099 50.0799 40.3799 50.0799 40.3599 50.0799C39.3099 50.1399 38.4199 49.3299 38.3599 48.2799C38.3599 48.2699 38.3599 48.2499 38.3599 48.2399C38.3199 47.6099 38.3199 46.9799 38.3599 46.3499C38.3899 45.2999 39.2699 44.4799 40.3199 44.5099C40.3299 44.5099 40.3499 44.5099 40.3599 44.5099C41.3899 44.4399 42.2799 45.2199 42.3599 46.2499C42.3599 46.2799 42.3599 46.3199 42.3599 46.3499C42.3999 46.9799 42.4099 47.6099 42.3599 48.2399Z" fill="#1D1D1B"/>
<path d="M100.68 42.0901C99.7299 42.0901 98.7899 42.2401 97.8899 42.5601C97.3899 42.7201 97.0499 43.1901 97.0599 43.7201C97.0599 44.4901 97.7199 45.0401 98.7999 44.7201C99.3899 44.5201 99.9999 44.4201 100.62 44.4001C101.94 44.4001 102.42 44.8901 102.42 45.8801V46.3901C101.74 46.2001 101.03 46.1101 100.32 46.1001C97.5299 46.1001 96.4199 47.5801 96.4199 49.1901C96.4199 50.9901 97.6699 52.5201 100.42 52.5201C101.82 52.5801 103.21 52.2301 104.42 51.5201C104.73 51.3401 104.91 50.9901 104.87 50.6301V45.9301C104.87 43.2601 103.35 42.0901 100.68 42.0901ZM102.42 49.8501C101.87 50.1901 101.23 50.3601 100.58 50.3401C99.5799 50.3401 98.8799 49.9101 98.8799 49.0801C98.8799 48.2501 99.4999 47.8401 100.52 47.8401C101.17 47.8401 101.81 47.9501 102.42 48.1501V49.8501Z" fill="#1D1D1B"/>
<path d="M90 42.0901C88.53 42.0901 87.08 42.5101 85.85 43.3201C85.63 43.4601 85.51 43.7001 85.53 43.9601V54.8501C85.53 55.5501 86.1 56.1201 86.8 56.1201C87.5 56.1201 88.07 55.5501 88.07 54.8501V52.0301C88.74 52.3501 89.48 52.5101 90.23 52.5001C92.39 52.6601 94.28 51.0401 94.44 48.8701C94.44 48.7901 94.44 48.7001 94.45 48.6201C94.5 47.7601 94.5 46.8901 94.45 46.0301C94.34 43.7401 92.4 41.9701 90.11 42.0801C90.07 42.0801 90.04 42.0801 90 42.0801V42.0901ZM91.91 48.2601C91.97 49.2101 91.24 50.0301 90.28 50.0901C90.19 50.0901 90.09 50.0901 90 50.0901C89.33 50.0901 88.67 49.9101 88.09 49.5801V45.1101C88.65 44.7601 89.3 44.5601 89.96 44.5401C90.95 44.4301 91.85 45.1501 91.95 46.1501C91.96 46.2501 91.96 46.3501 91.95 46.4401C91.97 47.0501 91.95 47.6601 91.9 48.2701L91.91 48.2601Z" fill="#1D1D1B"/>
<path d="M39.8301 35.3499C42.0401 35.3499 43.8301 34.1799 43.8301 32.0499C43.8301 30.5599 42.9001 29.6099 41.0001 29.1699L39.6601 28.8699C38.8001 28.6799 38.5201 28.4099 38.5201 28.0099C38.5201 27.6099 38.9201 27.1999 39.8601 27.1999C40.4401 27.2199 41.0001 27.3599 41.5201 27.6099C42.0401 27.9499 42.7201 27.8899 43.1701 27.4599C43.5901 26.9599 43.5201 26.2199 43.0201 25.7999C43.0201 25.7999 43.0101 25.7899 43.0001 25.7799C42.0901 25.1699 41.0101 24.8699 39.9101 24.9199C37.6901 24.9199 36.0401 26.0399 36.0401 28.0899C36.0401 29.7199 37.2501 30.5899 38.8101 30.9899C39.5501 31.1799 39.5301 31.1599 40.2101 31.3099C40.8901 31.4599 41.3101 31.7899 41.3101 32.2099C41.3101 32.6299 40.8601 33.0799 39.8701 33.0799C39.0701 33.0899 38.2901 32.8699 37.6101 32.4499C37.1001 32.0599 36.3801 32.1499 35.9801 32.6499C35.9801 32.6499 35.9701 32.6699 35.9601 32.6799C35.6201 33.1799 35.7201 33.8599 36.1901 34.2499C37.2301 35.0399 38.5201 35.4299 39.8301 35.3499Z" fill="#1D1D1B"/>
<path d="M57.69 33.57L59.41 26.76C59.69 26.1 59.37 25.34 58.71 25.06C58.55 25 58.39 24.96 58.22 24.96C57.6 24.96 57.08 25.42 57 26.03L55.65 32.25C55.65 32.25 55.6 32.33 55.55 32.33C55.5 32.33 55.47 32.3 55.46 32.25L54.11 26.56C53.92 25.66 53.15 25.01 52.23 24.97C51.3 24.97 50.5 25.64 50.36 26.56L49 32.24C49 32.24 48.95 32.32 48.9 32.32C48.9 32.32 48.83 32.32 48.81 32.24L47.42 26.03C47.34 25.41 46.8 24.94 46.17 24.97C45.45 24.99 44.89 25.59 44.9 26.3C44.9 26.46 44.94 26.61 45 26.76L46.74 33.57C46.89 34.6 47.77 35.36 48.81 35.35C49.87 35.38 50.77 34.58 50.86 33.53L52.13 28.35C52.13 28.35 52.19 28.28 52.22 28.28C52.27 28.28 52.31 28.31 52.32 28.35L53.57 33.55C53.67 34.6 54.57 35.38 55.62 35.35C56.66 35.35 57.54 34.6 57.69 33.57Z" fill="#1D1D1B"/>
<path d="M62.6199 23.93C63.3799 23.93 63.9999 23.31 63.9999 22.55C63.9999 21.81 63.4099 21.21 62.6699 21.2C62.6699 21.2 62.6599 21.2 62.6499 21.2C61.9199 21.18 61.3199 21.76 61.2999 22.49C61.2999 22.51 61.2999 22.53 61.2999 22.55C61.2899 23.29 61.8799 23.91 62.6199 23.93Z" fill="#1D1D1B"/>
<path d="M63.8901 34.03V26.33C63.9001 25.62 63.3401 25.04 62.6301 25.03C62.6301 25.03 62.6301 25.03 62.6201 25.03C61.9201 25.03 61.3601 25.58 61.3501 26.28C61.3501 26.3 61.3501 26.32 61.3501 26.34V34.03C61.3501 34.74 61.9101 35.32 62.6201 35.34C63.3301 35.34 63.9001 34.76 63.8901 34.05C63.8901 34.05 63.8901 34.04 63.8901 34.03Z" fill="#1D1D1B"/>
<path d="M71.3301 29.1699L70.0001 28.8699C69.1501 28.6799 68.8601 28.4099 68.8601 28.0099C68.8601 27.6099 69.2601 27.1999 70.2101 27.1999C70.7801 27.2199 71.3401 27.3599 71.8601 27.6099C72.3801 27.9499 73.0601 27.8899 73.5101 27.4599C73.9401 26.9799 73.9001 26.2399 73.4201 25.8099C73.4101 25.8099 73.4001 25.7899 73.3901 25.7799C72.4801 25.1699 71.4001 24.8699 70.3001 24.9199C68.0801 24.9199 66.4301 26.0399 66.4301 28.0899C66.4301 29.7199 67.6501 30.5899 69.2001 30.9899C69.9401 31.1799 69.9201 31.1599 70.6101 31.3099C71.3001 31.4599 71.7101 31.7899 71.7101 32.2099C71.7101 32.6299 71.2501 33.0799 70.2601 33.0799C69.4601 33.0899 68.6801 32.8699 68.0001 32.4499C67.4901 32.0599 66.7701 32.1499 66.3701 32.6499C66.3701 32.6499 66.3601 32.6699 66.3501 32.6799C66.0101 33.1799 66.1001 33.8599 66.5701 34.2499C67.6101 35.0399 68.9001 35.4299 70.2001 35.3499C72.4001 35.3499 74.2001 34.1799 74.2001 32.0499C74.1501 30.5599 73.2201 29.6099 71.3301 29.1699Z" fill="#1D1D1B"/>
<path d="M80.8501 29.1699L79.5001 28.8699C78.6501 28.6799 78.3601 28.4099 78.3601 28.0099C78.3601 27.6099 78.7601 27.1999 79.7101 27.1999C80.2801 27.2199 80.8401 27.3599 81.3601 27.6099C81.8801 27.9499 82.5501 27.8799 83.0001 27.4599C83.4301 26.9799 83.4001 26.2399 82.9201 25.8099C82.9101 25.8099 82.9001 25.7899 82.8901 25.7799C81.9801 25.1699 80.9001 24.8699 79.8001 24.9199C77.5801 24.9199 75.9301 26.0399 75.9301 28.0899C75.9301 29.7199 77.1401 30.5899 78.7001 30.9899C79.4401 31.1799 79.4201 31.1599 80.1001 31.3099C80.7801 31.4599 81.2001 31.7899 81.2001 32.2099C81.2001 32.6299 80.7401 33.0799 79.7601 33.0799C78.9601 33.0899 78.1801 32.8699 77.5001 32.4499C77.0301 32.0199 76.3101 32.0499 75.8701 32.5099C75.4301 32.9699 75.4701 33.6999 75.9301 34.1399C75.9701 34.1799 76.0201 34.2199 76.0701 34.2499C77.1101 35.0399 78.3901 35.4299 79.6901 35.3499C81.8901 35.3499 83.6901 34.1799 83.6901 32.0499C83.6701 30.5599 82.7401 29.6099 80.8401 29.1699H80.8501Z" fill="#1D1D1B"/>
</g>
<defs>
<clipPath id="clip0_365_690">
<rect width="153.16" height="56.12" fill="white"/>
</clipPath>
</defs>
</svg>
