<svg width="253" height="155" viewBox="0 0 253 155" fill="none" xmlns="http://www.w3.org/2000/svg">
<path d="M97.1635 66.0931C93.8643 63.1933 92.2089 58.9565 92.2089 53.3826V39.0631C92.2089 33.4892 93.8354 29.2524 97.094 26.3526C100.347 23.4528 105.058 22 111.211 22C115.448 22 118.95 22.6946 121.716 24.0721C124.483 25.4554 126.711 27.5507 128.407 30.3637L122.787 34.3111C121.357 32.1695 119.789 30.6183 118.07 29.6633C116.351 28.7025 114.088 28.2221 111.28 28.2221C103.831 28.2221 100.104 31.8338 100.104 39.0631V53.3826C100.104 60.6061 103.872 64.2236 111.414 64.2236C114.4 64.2236 116.808 63.7084 118.643 62.684C120.472 61.6595 122.058 60.0504 123.395 57.8683L129.015 62.0183C126.92 64.9644 124.552 67.106 121.925 68.443C119.291 69.7801 115.812 70.4515 111.489 70.4515C105.238 70.4399 100.463 68.9929 97.1635 66.0931Z" fill="white"/>
<path d="M147.178 68.2984C145.771 66.8745 144.533 64.3509 143.462 60.7392L132.355 22.7988H140.249L150.957 60.6061C151.224 61.4974 151.501 62.1457 151.797 62.5451C152.086 62.9444 152.474 63.147 152.966 63.147C153.411 63.147 153.793 62.9444 154.106 62.5451C154.419 62.1457 154.685 61.4974 154.91 60.6061L165.618 22.7988H173.513L162.406 60.7392C161.335 64.3509 160.097 66.8745 158.69 68.2984C157.284 69.728 155.379 70.4399 152.972 70.4399C150.512 70.4399 148.584 69.728 147.178 68.2984Z" fill="white"/>
<path d="M181.339 65.9889C178.751 63.558 177.461 59.981 177.461 55.2464V37.182C177.461 32.4532 178.751 28.8762 181.339 26.4394C183.926 24.0085 188.053 22.793 193.719 22.793H209.509V29.0151H193.719C190.866 29.0151 188.753 29.6749 187.399 30.9888C186.038 32.3027 185.355 34.369 185.355 37.1762V43.1321H206.435V49.2905H185.355V55.2464C185.355 58.0594 186.033 60.1199 187.399 61.4338C188.759 62.7477 190.866 63.4075 193.719 63.4075H209.781V69.6296H193.719C188.053 69.6354 183.926 68.4257 181.339 65.9889Z" fill="white"/>
<path d="M221.149 66.0931C217.849 63.1933 216.194 58.9565 216.194 53.3826V39.0631C216.194 33.4892 217.82 29.2524 221.079 26.3526C224.332 23.4528 229.043 22 235.196 22C239.433 22 242.935 22.6946 245.701 24.0721C248.468 25.4554 250.696 27.5507 252.392 30.3637L246.772 34.3111C245.342 32.1695 243.774 30.6183 242.055 29.6633C240.336 28.7025 238.073 28.2221 235.265 28.2221C227.816 28.2221 224.089 31.8338 224.089 39.0631V53.3826C224.089 60.6061 227.857 64.2236 235.399 64.2236C238.385 64.2236 240.793 63.7084 242.628 62.684C244.457 61.6595 246.043 60.0504 247.38 57.8683L253 62.0183C250.905 64.9644 248.537 67.106 245.91 68.443C243.276 69.7801 239.798 70.4515 235.468 70.4515C229.223 70.4399 224.453 68.9929 221.149 66.0931Z" fill="white"/>
<path d="M52.5031 132.111C40.5335 128.042 32.7428 122.15 25.2126 116.449C19.0078 111.755 13.1504 107.321 5.24972 103.97C4.20788 103.559 3.54226 102.969 3.21813 102.181C2.6509 100.786 3.26443 99.0096 3.68117 98.0777C9.42867 85.2051 27.3599 68.8656 27.5973 68.6456L28.5696 67.6154C33.2869 62.5914 35.6657 56.9191 37.9636 51.4263C38.6234 49.8462 39.2138 48.1966 39.781 46.5933C41.8763 40.6837 44.0468 34.5774 50.4946 30.8325C52.4047 29.7212 57.747 27.2555 57.8049 27.2324C58.2795 27.0124 58.5053 26.4626 58.3143 25.9764C58.129 25.4902 57.5908 25.2297 57.093 25.386C53.0066 26.6594 50.0374 27.8748 47.7511 29.2003C37.8305 34.9594 34.4387 43.0452 31.1627 50.8706C28.9632 56.1204 26.8853 61.0807 22.8742 65.358L21.9018 66.3941C10.4937 78.5431 7.04979 82.2127 0.821888 96.1503C-1.00134 100.237 0.28939 105.058 3.89532 107.616C5.78222 108.959 7.64017 110.493 9.59652 112.119C17.5261 118.683 27.3947 126.856 51.3744 133.934C51.6291 134.01 51.9764 134.039 52.1153 134.05C52.1384 134.05 52.1616 134.056 52.1847 134.056C52.6536 134.056 53.0645 133.726 53.1571 133.263C53.2555 132.759 52.9719 132.273 52.5031 132.111Z" fill="white"/>
<path d="M82.0741 110.939C80.9802 107.333 79.7878 103.762 78.6302 100.3C74.8565 89.0194 71.291 78.3637 70.9322 66.4288C70.8974 65.3696 71.1811 63.2396 71.1811 63.2223C71.2447 62.7361 70.9437 62.2788 70.4749 62.1399C69.0279 61.7174 67.5057 62.2904 66.6664 63.6043L65.7693 65.1555C59.0957 76.7489 52.1906 88.7358 30.9775 102.708C30.5608 102.98 30.4161 103.518 30.6302 103.97C30.8502 104.416 31.3595 104.636 31.8341 104.479C35.8568 103.142 50.6452 93.8698 54.7489 90.1134C57.3535 87.8676 63.5293 81.8076 67.1237 76.6215C73.2474 101.093 79.6779 111.269 80.4592 111.969C80.6445 112.137 80.8818 112.224 81.1191 112.224C81.3043 112.224 81.4895 112.172 81.6516 112.067C82.0336 111.824 82.2014 111.361 82.0741 110.939Z" fill="white"/>
<path d="M96.6367 92.3418C95.6932 91.4967 95.2244 90.2581 95.2244 88.6374V84.4817C95.2244 82.8842 95.6817 81.6571 96.602 80.8063C97.5165 79.9554 98.8419 79.5271 100.573 79.5271C101.707 79.5271 102.674 79.7065 103.478 80.0654C104.283 80.4243 104.948 80.9799 105.469 81.7324L104.474 82.4559C104.016 81.8423 103.484 81.3908 102.865 81.1014C102.245 80.812 101.504 80.6616 100.63 80.6616C99.3281 80.6616 98.3384 80.9857 97.6554 81.6397C96.9724 82.288 96.6309 83.2372 96.6309 84.4874V88.6432C96.6309 89.905 96.9782 90.86 97.6728 91.5141C98.3673 92.1624 99.3918 92.4923 100.746 92.4923C101.643 92.4923 102.407 92.3418 103.027 92.0408C103.652 91.7398 104.19 91.271 104.647 90.6343L105.643 91.3925C105.058 92.1739 104.381 92.7412 103.611 93.0884C102.841 93.4415 101.892 93.6151 100.764 93.6151C98.9577 93.6094 97.5801 93.1868 96.6367 92.3418Z" fill="white"/>
<path d="M115.193 92.3128C115.28 92.4633 115.436 92.6369 115.673 92.8279L114.794 93.6093C114.47 93.4241 114.226 93.2215 114.07 92.9842C113.914 92.7469 113.821 92.4459 113.798 92.0639C113.462 92.5559 112.999 92.9379 112.415 93.2042C111.83 93.4704 111.17 93.6035 110.447 93.6035C109.457 93.6035 108.699 93.372 108.166 92.909C107.634 92.4459 107.368 91.7803 107.368 90.9121C107.368 90.1076 107.645 89.4767 108.207 89.0194C108.768 88.5622 109.613 88.2728 110.742 88.1396L112.264 87.966C112.693 87.9139 113.017 87.8503 113.231 87.7692C113.445 87.694 113.59 87.5782 113.671 87.4277C113.746 87.2772 113.781 87.0689 113.769 86.791C113.653 85.5813 112.808 84.9736 111.234 84.9736C110.649 84.9736 110.146 85.0662 109.729 85.2572C109.312 85.4482 108.954 85.7434 108.658 86.1428L107.761 85.4772C108.375 84.4874 109.532 83.9954 111.234 83.9954C112.484 83.9954 113.434 84.2617 114.093 84.7942C114.747 85.3267 115.077 86.0965 115.077 87.0978V91.7224C115.066 91.9713 115.112 92.1623 115.193 92.3128ZM112.942 91.8903C113.503 91.4215 113.781 90.8021 113.781 90.0381V88.458C113.625 88.5738 113.434 88.6606 113.214 88.7184C112.994 88.7763 112.687 88.8284 112.299 88.8631L110.858 89.0194C110.117 89.112 109.556 89.3146 109.168 89.633C108.786 89.9513 108.595 90.3738 108.595 90.889C108.595 92.0234 109.312 92.5849 110.742 92.5849C111.645 92.5964 112.38 92.3591 112.942 91.8903Z" fill="white"/>
<path d="M120.651 93.2274C120.13 92.9727 119.708 92.6023 119.384 92.1045V93.3894H118.076V81.142C118.076 80.8931 118.035 80.7021 117.96 80.5574C117.879 80.4127 117.717 80.2391 117.474 80.0307L118.33 79.2725C118.718 79.4924 118.996 79.7413 119.152 80.0133C119.308 80.2854 119.384 80.6789 119.384 81.1825V85.5351C119.719 85.0431 120.148 84.6611 120.663 84.4006C121.178 84.1402 121.762 84.0128 122.428 84.0128C123.233 84.0128 123.945 84.1981 124.552 84.5685C125.166 84.9389 125.635 85.4656 125.965 86.137C126.295 86.8142 126.462 87.6014 126.462 88.4985V89.1237C126.462 90.0208 126.295 90.808 125.965 91.4852C125.635 92.1624 125.166 92.6833 124.558 93.0537C123.95 93.4242 123.25 93.6094 122.44 93.6094C121.768 93.6094 121.172 93.482 120.651 93.2274ZM124.338 91.6183C124.871 90.9932 125.137 90.1597 125.137 89.1237V88.4985C125.137 87.4567 124.871 86.6232 124.338 86.0039C123.806 85.3788 123.094 85.0663 122.214 85.0663C121.462 85.0663 120.854 85.2399 120.397 85.593C119.939 85.946 119.604 86.4727 119.384 87.1731V90.4491C119.604 91.1495 119.945 91.6762 120.397 92.0292C120.854 92.3823 121.456 92.5559 122.214 92.5559C123.094 92.5559 123.806 92.2434 124.338 91.6183Z" fill="white"/>
<path d="M129.217 81.8828C129.038 81.7034 128.945 81.4834 128.945 81.2403C128.945 80.9914 129.038 80.7831 129.217 80.6036C129.397 80.43 129.617 80.3374 129.86 80.3374C130.103 80.3374 130.317 80.4242 130.497 80.6036C130.67 80.7773 130.757 80.9914 130.757 81.2403C130.757 81.4892 130.67 81.7034 130.497 81.8828C130.323 82.068 130.109 82.1548 129.86 82.1548C129.611 82.1548 129.397 82.0622 129.217 81.8828ZM129.42 92.8569C129.27 92.5791 129.194 92.1913 129.194 91.6935V84.2212H130.502V91.734C130.502 91.9655 130.543 92.1623 130.63 92.307C130.717 92.4575 130.873 92.6311 131.11 92.8221L130.254 93.6035C129.848 93.3894 129.571 93.1405 129.42 92.8569Z" fill="white"/>
<path d="M140.574 84.8405C141.094 85.3961 141.355 86.1601 141.355 87.1325V93.3952H140.047V87.3293C140.047 86.6116 139.873 86.056 139.532 85.6624C139.184 85.263 138.71 85.0662 138.096 85.0662C137.396 85.0662 136.788 85.3267 136.273 85.8476C135.758 86.3685 135.393 87.0747 135.173 87.9718V93.3952H133.865V85.8823C133.865 85.6508 133.825 85.454 133.738 85.3093C133.651 85.1588 133.495 84.9852 133.258 84.7942L134.114 84.0128C134.519 84.2327 134.791 84.4874 134.942 84.7652C135.092 85.0431 135.168 85.4309 135.168 85.9286V86.1023C135.492 85.4251 135.932 84.9099 136.487 84.5511C137.043 84.1922 137.68 84.0128 138.409 84.0128C139.329 84.007 140.053 84.2848 140.574 84.8405Z" fill="white"/>
<path d="M149.51 92.3012C149.939 92.1334 150.338 91.8613 150.703 91.4793L151.524 92.2375C151.108 92.7064 150.616 93.0479 150.043 93.2736C149.47 93.4935 148.775 93.6035 147.953 93.6035C146.703 93.6035 145.731 93.3083 145.036 92.7179C144.342 92.1276 143.994 91.2941 143.994 90.2291V87.2656C143.994 86.2643 144.336 85.4714 145.019 84.8926C145.702 84.3138 146.639 84.0244 147.838 84.0244C149.059 84.0244 150.002 84.3311 150.656 84.9389C151.31 85.5524 151.64 86.4148 151.64 87.5319C151.64 88.2496 151.507 88.7358 151.241 89.0078C150.975 89.2741 150.477 89.4072 149.748 89.4072H145.297V90.2291C145.297 91.0105 145.522 91.5893 145.968 91.9771C146.419 92.3591 147.102 92.5501 148.029 92.5501C148.584 92.5559 149.082 92.4691 149.51 92.3012ZM145.968 85.6797C145.517 86.0907 145.297 86.6463 145.297 87.3467V88.458H149.198C149.638 88.458 149.939 88.3827 150.095 88.2322C150.251 88.0817 150.326 87.7981 150.326 87.3814C150.326 86.6521 150.106 86.0849 149.661 85.6739C149.221 85.263 148.602 85.0604 147.809 85.0604C147.033 85.0604 146.414 85.2688 145.968 85.6797Z" fill="white"/>
<path d="M155.107 85.2804V90.7443C155.107 91.9019 155.617 92.4807 156.629 92.4807H157.741V93.5167H156.629C155.651 93.5167 154.939 93.291 154.482 92.8453C154.025 92.3938 153.799 91.6993 153.799 90.7501V82.1085C153.799 81.8712 153.759 81.6802 153.672 81.5355C153.585 81.385 153.429 81.2114 153.191 81.0204L154.071 80.239C154.459 80.459 154.731 80.7079 154.881 80.9915C155.032 81.2693 155.107 81.6571 155.107 82.1548V84.2443H157.741V85.2977H155.107V85.2804Z" fill="white"/>
<path d="M168.252 93.0421C167.905 92.6659 167.604 92.035 167.343 91.1494L163.946 79.7355H165.352L168.726 91.1321C168.842 91.5488 168.97 91.8498 169.108 92.0292C169.247 92.2144 169.409 92.3013 169.606 92.3013C169.786 92.3013 169.942 92.2144 170.075 92.0408C170.202 91.8672 170.336 91.5604 170.463 91.1321L173.837 79.7355H175.261L171.864 91.1494C171.603 92.0234 171.296 92.6485 170.949 93.0305C170.602 93.4126 170.15 93.6036 169.6 93.6036C169.045 93.6093 168.593 93.4183 168.252 93.0421Z" fill="white"/>
<path d="M183.59 92.3128C183.677 92.4633 183.833 92.6369 184.07 92.8279L183.191 93.6093C182.867 93.4241 182.624 93.2215 182.467 92.9842C182.311 92.7469 182.218 92.4459 182.195 92.0639C181.859 92.5559 181.396 92.9379 180.812 93.2042C180.227 93.4704 179.567 93.6035 178.844 93.6035C177.854 93.6035 177.096 93.372 176.563 92.909C176.031 92.4459 175.765 91.7803 175.765 90.9121C175.765 90.1076 176.043 89.4767 176.604 89.0194C177.165 88.5622 178.01 88.2728 179.139 88.1396L180.661 87.966C181.09 87.9139 181.414 87.8503 181.628 87.7692C181.842 87.6882 181.987 87.5782 182.068 87.4277C182.149 87.2772 182.178 87.0689 182.166 86.791C182.05 85.5813 181.205 84.9736 179.631 84.9736C179.047 84.9736 178.543 85.0662 178.126 85.2572C177.709 85.4482 177.351 85.7434 177.055 86.1428L176.158 85.4772C176.772 84.4874 177.929 83.9954 179.631 83.9954C180.881 83.9954 181.831 84.2617 182.49 84.7942C183.144 85.3267 183.474 86.0965 183.474 87.0978V91.7224C183.463 91.9713 183.503 92.1623 183.59 92.3128ZM181.333 91.8903C181.894 91.4215 182.172 90.8021 182.172 90.0381V88.458C182.016 88.5738 181.825 88.6606 181.605 88.7184C181.385 88.7763 181.078 88.8284 180.69 88.8631L179.243 89.0194C178.502 89.112 177.941 89.3146 177.553 89.633C177.171 89.9513 176.98 90.3738 176.98 90.889C176.98 92.0234 177.698 92.5849 179.128 92.5849C180.042 92.5964 180.777 92.3591 181.333 91.8903Z" fill="white"/>
<path d="M194.066 92.3128C194.153 92.4633 194.315 92.6428 194.564 92.8511L193.684 93.6093C193.297 93.3894 193.019 93.1405 192.863 92.8569C192.706 92.5791 192.625 92.1913 192.625 91.6935V91.5546C192.301 92.2202 191.855 92.7238 191.3 93.0768C190.738 93.4299 190.084 93.6036 189.332 93.6036C188.383 93.6036 187.648 93.3199 187.127 92.7527C186.606 92.1855 186.345 91.3925 186.345 90.3623V84.2154H187.653V90.2812C187.653 91.0105 187.833 91.572 188.192 91.9598C188.55 92.3476 189.054 92.5444 189.702 92.5444C190.403 92.5444 191.01 92.2897 191.525 91.7861C192.041 91.2768 192.405 90.5822 192.625 89.6966V84.2154H193.933V91.7282C193.939 91.9713 193.98 92.1624 194.066 92.3128Z" fill="white"/>
<path d="M205.11 92.3129C205.197 92.4633 205.353 92.637 205.59 92.828L204.734 93.6094C204.41 93.4242 204.167 93.1868 204.01 92.8974C203.854 92.6022 203.761 92.3013 203.738 91.9887C203.061 93.0711 202.025 93.6094 200.636 93.6094C199.831 93.6094 199.125 93.4242 198.517 93.0537C197.91 92.6833 197.447 92.1566 197.111 91.4852C196.781 90.808 196.613 90.0208 196.613 89.1237V88.4985C196.613 87.6014 196.781 86.8142 197.111 86.137C197.441 85.4598 197.91 84.9389 198.517 84.5685C199.119 84.1981 199.825 84.0128 200.636 84.0128C201.301 84.0128 201.892 84.146 202.419 84.4006C202.945 84.6611 203.368 85.0315 203.675 85.5119V81.142C203.675 80.9047 203.634 80.7195 203.559 80.5748C203.484 80.4301 203.316 80.2506 203.073 80.0307L203.97 79.2725C204.346 79.4808 204.612 79.7297 204.763 80.0133C204.913 80.2969 204.988 80.6905 204.988 81.1825V91.7398C204.983 91.9714 205.029 92.1624 205.11 92.3129ZM203.675 87.1731C203.455 86.4727 203.113 85.946 202.662 85.593C202.204 85.2399 201.602 85.0663 200.85 85.0663C199.964 85.0663 199.258 85.3788 198.72 86.0039C198.187 86.629 197.921 87.4625 197.921 88.4985V89.1237C197.921 90.1655 198.187 90.999 198.72 91.6183C199.252 92.2434 199.964 92.5559 200.85 92.5559C201.602 92.5559 202.21 92.3823 202.662 92.0292C203.119 91.6762 203.455 91.1495 203.675 90.4491V87.1731Z" fill="white"/>
<path d="M208.664 92.6832C207.981 92.0639 207.639 91.1957 207.639 90.0786V87.5434C207.639 86.4264 207.981 85.5582 208.664 84.9388C209.347 84.3195 210.302 84.0128 211.523 84.0128C212.744 84.0128 213.699 84.3195 214.382 84.9388C215.065 85.5582 215.407 86.4264 215.407 87.5434V90.0786C215.407 91.1957 215.065 92.0639 214.382 92.6832C213.699 93.3025 212.744 93.6093 211.523 93.6093C210.296 93.6093 209.347 93.3025 208.664 92.6832ZM213.422 91.9134C213.873 91.4851 214.093 90.8716 214.093 90.0786V87.5434C214.093 86.7505 213.867 86.137 213.422 85.7087C212.97 85.2803 212.339 85.0662 211.517 85.0662C210.695 85.0662 210.064 85.2803 209.613 85.7087C209.162 86.137 208.942 86.7505 208.942 87.5434V90.0786C208.942 90.8716 209.167 91.4851 209.613 91.9134C210.064 92.3417 210.695 92.5559 211.517 92.5559C212.339 92.5559 212.976 92.3417 213.422 91.9134Z" fill="white"/>
<path d="M218.353 81.8828C218.168 81.7034 218.081 81.4834 218.081 81.2403C218.081 80.9914 218.174 80.7831 218.353 80.6036C218.532 80.43 218.752 80.3374 218.995 80.3374C219.239 80.3374 219.453 80.4242 219.632 80.6036C219.806 80.7773 219.893 80.9914 219.893 81.2403C219.893 81.4892 219.806 81.7034 219.632 81.8828C219.458 82.068 219.244 82.1548 218.995 82.1548C218.747 82.1548 218.532 82.0622 218.353 81.8828ZM218.556 92.8569C218.405 92.5791 218.33 92.1913 218.33 91.6935V84.2212H219.638V91.734C219.638 91.9655 219.678 92.1623 219.765 92.307C219.852 92.4575 220.008 92.6311 220.246 92.8221L219.389 93.6035C218.984 93.3894 218.706 93.1405 218.556 92.8569Z" fill="white"/>
<path d="M223.724 93.2389C223.186 92.99 222.694 92.5906 222.248 92.0292L223.088 91.3057C223.493 91.7629 223.886 92.0813 224.28 92.2723C224.668 92.4633 225.137 92.5559 225.686 92.5559C226.468 92.5559 227.058 92.417 227.463 92.145C227.868 91.8729 228.065 91.4736 228.065 90.9526C228.065 90.6285 227.99 90.368 227.834 90.1712C227.677 89.9745 227.405 89.8066 227.012 89.6619C226.624 89.5172 226.028 89.3783 225.235 89.2336C223.412 88.9095 222.503 88.0355 222.503 86.6174C222.503 85.7955 222.798 85.1588 223.389 84.6958C223.979 84.2327 224.795 84.0012 225.837 84.0012C226.578 84.0012 227.226 84.1286 227.776 84.3832C228.326 84.6379 228.748 85.0025 229.032 85.483L228.193 86.1833C227.892 85.7955 227.55 85.5061 227.168 85.3267C226.786 85.1473 226.34 85.0546 225.831 85.0546C225.183 85.0546 224.668 85.1936 224.297 85.4656C223.927 85.7376 223.742 86.1138 223.742 86.6C223.742 87.0283 223.892 87.3583 224.199 87.5956C224.506 87.8329 225.038 88.0239 225.808 88.1802C226.705 88.377 227.405 88.5853 227.903 88.8169C228.401 89.0426 228.76 89.3262 228.974 89.6677C229.188 90.0092 229.298 90.4375 229.298 90.9526C229.298 91.8266 228.991 92.4864 228.372 92.9321C227.753 93.3836 226.856 93.6035 225.669 93.6035C224.922 93.6093 224.268 93.4878 223.724 93.2389Z" fill="white"/>
<path d="M96.2895 112.322C95.5544 111.651 95.1898 110.626 95.1898 109.249V103.744C95.1898 102.367 95.5544 101.342 96.2895 100.671C97.0246 99.9993 98.1532 99.6636 99.6755 99.6636H104.375V100.798H99.6755C98.6221 100.798 97.8465 101.041 97.3429 101.522C96.8393 102.002 96.5905 102.743 96.5905 103.744V105.932H103.38V107.066H96.5905V109.254C96.5905 110.256 96.8393 110.997 97.3429 111.477C97.8407 111.957 98.6221 112.2 99.6755 112.2H104.497V113.335H99.6755C98.1532 113.329 97.0246 112.993 96.2895 112.322Z" fill="white"/>
<path d="M113.428 104.554C114.024 104.965 114.475 105.509 114.776 106.181C115.077 106.858 115.228 107.605 115.228 108.427V109.052C115.228 109.874 115.077 110.62 114.776 111.298C114.475 111.975 114.03 112.519 113.428 112.93C112.832 113.341 112.102 113.543 111.24 113.543C109.822 113.543 108.792 113.034 108.155 112.021V117.601H106.847V105.816C106.847 105.585 106.806 105.388 106.719 105.243C106.633 105.093 106.476 104.919 106.239 104.728L107.096 103.947C107.431 104.144 107.686 104.358 107.848 104.589C108.01 104.827 108.097 105.116 108.109 105.469C108.797 104.456 109.839 103.947 111.228 103.947C112.102 103.941 112.832 104.144 113.428 104.554ZM113.92 108.427C113.92 107.385 113.654 106.551 113.121 105.932C112.589 105.307 111.877 104.994 110.997 104.994C110.244 104.994 109.637 105.168 109.179 105.521C108.722 105.874 108.386 106.401 108.166 107.101V110.377C108.386 111.078 108.728 111.604 109.179 111.957C109.637 112.31 110.239 112.484 110.997 112.484C111.882 112.484 112.589 112.171 113.121 111.546C113.654 110.921 113.92 110.088 113.92 109.052V108.427Z" fill="white"/>
<path d="M124.911 112.247C124.998 112.397 125.154 112.571 125.392 112.762L124.512 113.543C124.188 113.358 123.945 113.155 123.788 112.918C123.632 112.681 123.539 112.38 123.516 111.998C123.181 112.496 122.718 112.872 122.133 113.138C121.548 113.404 120.889 113.537 120.165 113.537C119.175 113.537 118.417 113.306 117.885 112.843C117.352 112.38 117.086 111.714 117.086 110.846C117.086 110.041 117.364 109.411 117.925 108.953C118.487 108.496 119.332 108.207 120.46 108.074L121.982 107.9C122.411 107.848 122.735 107.784 122.949 107.703C123.163 107.628 123.308 107.512 123.389 107.362C123.464 107.211 123.499 107.003 123.487 106.725C123.372 105.515 122.527 104.907 120.952 104.907C120.368 104.907 119.864 105 119.447 105.191C119.031 105.382 118.672 105.677 118.377 106.077L117.479 105.411C118.093 104.421 119.251 103.929 120.952 103.929C122.202 103.929 123.152 104.196 123.811 104.728C124.466 105.261 124.795 106.03 124.795 107.032V111.656C124.784 111.899 124.83 112.096 124.911 112.247ZM122.66 111.824C123.221 111.355 123.499 110.736 123.499 109.972V108.392C123.343 108.508 123.152 108.594 122.932 108.652C122.712 108.71 122.405 108.762 122.017 108.797L120.576 108.953C119.835 109.046 119.274 109.249 118.886 109.567C118.504 109.885 118.313 110.308 118.313 110.823C118.313 111.957 119.031 112.519 120.46 112.519C121.363 112.525 122.098 112.293 122.66 111.824Z" fill="white"/>
<path d="M135.393 112.247C135.48 112.397 135.642 112.577 135.891 112.785L135.011 113.543C134.623 113.323 134.346 113.074 134.189 112.791C134.033 112.513 133.958 112.125 133.958 111.627V111.489C133.634 112.154 133.188 112.658 132.632 113.011C132.071 113.364 131.417 113.538 130.664 113.538C129.715 113.538 128.98 113.254 128.459 112.687C127.938 112.119 127.678 111.326 127.678 110.296V104.149H128.986V110.215C128.986 110.944 129.165 111.506 129.524 111.894C129.883 112.282 130.387 112.478 131.035 112.478C131.735 112.478 132.343 112.224 132.858 111.72C133.373 111.211 133.738 110.516 133.964 109.631V104.149H135.272V111.662C135.266 111.9 135.306 112.096 135.393 112.247Z" fill="white"/>
<path d="M138.866 112.791C138.716 112.513 138.64 112.125 138.64 111.627V101.053C138.64 100.804 138.6 100.607 138.513 100.457C138.426 100.306 138.27 100.144 138.033 99.9588L138.889 99.1774C139.294 99.3974 139.566 99.652 139.717 99.9299C139.867 100.208 139.943 100.595 139.943 101.093V111.668C139.943 111.899 139.983 112.096 140.07 112.241C140.157 112.391 140.313 112.565 140.55 112.756L139.694 113.537C139.289 113.318 139.017 113.069 138.866 112.791Z" fill="white"/>
<path d="M148.318 112.235C148.746 112.067 149.146 111.795 149.51 111.413L150.332 112.172C149.915 112.64 149.423 112.982 148.85 113.208C148.277 113.427 147.583 113.537 146.761 113.537C145.511 113.537 144.538 113.242 143.844 112.652C143.149 112.062 142.802 111.228 142.802 110.163V107.2C142.802 106.198 143.143 105.405 143.826 104.827C144.509 104.248 145.447 103.958 146.645 103.958C147.867 103.958 148.81 104.265 149.464 104.873C150.124 105.486 150.448 106.349 150.448 107.466C150.448 108.184 150.315 108.67 150.049 108.942C149.782 109.208 149.285 109.341 148.555 109.341H144.104V110.163C144.104 110.944 144.33 111.523 144.776 111.911C145.227 112.293 145.91 112.484 146.836 112.484C147.398 112.49 147.89 112.403 148.318 112.235ZM144.776 105.608C144.324 106.019 144.104 106.574 144.104 107.275V108.386H148.005C148.445 108.386 148.746 108.311 148.903 108.16C149.059 108.01 149.14 107.726 149.14 107.31C149.14 106.58 148.92 106.013 148.474 105.602C148.034 105.191 147.415 104.989 146.622 104.989C145.841 104.994 145.227 105.197 144.776 105.608Z" fill="white"/>
<path d="M162.857 112.235C163.286 112.067 163.685 111.795 164.05 111.413L164.872 112.172C164.455 112.64 163.963 112.982 163.39 113.208C162.817 113.427 162.122 113.537 161.3 113.537C160.05 113.537 159.078 113.242 158.383 112.652C157.689 112.062 157.341 111.228 157.341 110.163V107.2C157.341 106.198 157.683 105.405 158.366 104.827C159.049 104.248 159.987 103.958 161.185 103.958C162.406 103.958 163.349 104.265 164.003 104.873C164.657 105.486 164.987 106.349 164.987 107.466C164.987 108.184 164.854 108.67 164.588 108.942C164.322 109.208 163.824 109.341 163.095 109.341H158.644V110.163C158.644 110.944 158.869 111.523 159.315 111.911C159.767 112.293 160.45 112.484 161.376 112.484C161.931 112.49 162.423 112.403 162.857 112.235ZM159.315 105.608C158.864 106.019 158.644 106.574 158.644 107.275V108.386H162.545C162.985 108.386 163.286 108.311 163.442 108.16C163.598 108.01 163.674 107.726 163.674 107.31C163.674 106.58 163.454 106.013 163.008 105.602C162.568 105.191 161.949 104.989 161.156 104.989C160.374 104.994 159.761 105.197 159.315 105.608Z" fill="white"/>
<path d="M168.454 105.209V110.672C168.454 111.83 168.964 112.409 169.977 112.409H171.088V113.445H169.977C168.999 113.445 168.287 113.219 167.829 112.773C167.372 112.322 167.146 111.627 167.146 110.678V102.037C167.146 101.799 167.106 101.608 167.019 101.464C166.932 101.313 166.776 101.14 166.539 100.949L167.418 100.167C167.806 100.387 168.078 100.636 168.229 100.92C168.379 101.197 168.454 101.585 168.454 102.083V104.172H171.088V105.226H168.454V105.209Z" fill="white"/>
<path d="M179.394 112.276C178.45 111.431 177.982 110.192 177.982 108.571V104.416C177.982 102.818 178.439 101.591 179.359 100.74C180.274 99.8893 181.599 99.461 183.33 99.461C184.464 99.461 185.431 99.6404 186.235 99.9993C187.04 100.358 187.705 100.914 188.226 101.666L187.231 102.39C186.774 101.776 186.241 101.325 185.622 101.035C185.002 100.746 184.262 100.595 183.388 100.595C182.085 100.595 181.095 100.92 180.412 101.574C179.729 102.222 179.388 103.171 179.388 104.421V108.577C179.388 109.839 179.735 110.794 180.43 111.448C181.124 112.096 182.149 112.426 183.503 112.426C184.4 112.426 185.164 112.276 185.784 111.975C186.403 111.674 186.947 111.205 187.404 110.568L188.4 111.326C187.815 112.108 187.138 112.675 186.368 113.022C185.599 113.375 184.649 113.549 183.521 113.549C181.709 113.543 180.337 113.121 179.394 112.276Z" fill="white"/>
<path d="M191.039 112.617C190.356 111.998 190.015 111.13 190.015 110.013V107.477C190.015 106.36 190.356 105.492 191.039 104.873C191.722 104.253 192.677 103.947 193.899 103.947C195.12 103.947 196.075 104.253 196.758 104.873C197.441 105.492 197.782 106.36 197.782 107.477V110.013C197.782 111.13 197.441 111.998 196.758 112.617C196.075 113.236 195.12 113.543 193.899 113.543C192.677 113.543 191.722 113.231 191.039 112.617ZM195.803 111.842C196.254 111.413 196.474 110.8 196.474 110.007V107.472C196.474 106.679 196.248 106.065 195.803 105.637C195.351 105.209 194.72 104.994 193.899 104.994C193.077 104.994 192.446 105.209 191.994 105.637C191.543 106.065 191.323 106.679 191.323 107.472V110.007C191.323 110.8 191.549 111.413 191.994 111.842C192.446 112.27 193.077 112.484 193.899 112.484C194.72 112.484 195.351 112.276 195.803 111.842Z" fill="white"/>
<path d="M208.137 112.247C208.224 112.397 208.386 112.577 208.635 112.785L207.755 113.543C207.367 113.323 207.089 113.074 206.933 112.791C206.777 112.513 206.696 112.125 206.696 111.627V111.489C206.372 112.154 205.926 112.658 205.37 113.011C204.809 113.364 204.155 113.538 203.402 113.538C202.453 113.538 201.718 113.254 201.197 112.687C200.676 112.119 200.416 111.326 200.416 110.296V104.149H201.724V110.215C201.724 110.944 201.903 111.506 202.262 111.894C202.621 112.282 203.125 112.478 203.773 112.478C204.473 112.478 205.081 112.224 205.596 111.72C206.111 111.211 206.476 110.516 206.696 109.631V104.149H208.004V111.662C208.01 111.9 208.05 112.096 208.137 112.247Z" fill="white"/>
<path d="M219.181 112.247C219.267 112.397 219.424 112.571 219.661 112.762L218.804 113.543C218.48 113.358 218.237 113.121 218.081 112.831C217.925 112.536 217.832 112.235 217.809 111.923C217.132 113.005 216.096 113.543 214.706 113.543C213.902 113.543 213.196 113.358 212.588 112.988C211.98 112.617 211.517 112.09 211.182 111.419C210.852 110.742 210.684 109.955 210.684 109.058V108.432C210.684 107.535 210.852 106.748 211.182 106.071C211.511 105.394 211.98 104.873 212.588 104.502C213.19 104.132 213.896 103.947 214.706 103.947C215.372 103.947 215.962 104.08 216.489 104.334C217.016 104.595 217.438 104.965 217.745 105.446V101.076C217.745 100.839 217.705 100.653 217.629 100.509C217.554 100.364 217.386 100.184 217.143 99.9645L218.04 99.2063C218.417 99.4147 218.683 99.6636 218.833 99.9472C218.984 100.231 219.059 100.624 219.059 101.116V111.674C219.053 111.899 219.094 112.096 219.181 112.247ZM217.745 107.101C217.525 106.401 217.184 105.874 216.732 105.521C216.275 105.168 215.673 104.994 214.921 104.994C214.035 104.994 213.329 105.307 212.791 105.932C212.252 106.557 211.992 107.391 211.992 108.427V109.052C211.992 110.094 212.258 110.927 212.791 111.546C213.323 112.171 214.035 112.484 214.921 112.484C215.673 112.484 216.281 112.31 216.732 111.957C217.19 111.604 217.525 111.078 217.745 110.377V107.101Z" fill="white"/>
<path d="M227.226 112.235C227.654 112.067 228.054 111.795 228.418 111.413L229.24 112.172C228.823 112.64 228.331 112.982 227.758 113.208C227.185 113.427 226.491 113.537 225.669 113.537C224.419 113.537 223.446 113.242 222.752 112.652C222.057 112.062 221.71 111.228 221.71 110.163V107.2C221.71 106.198 222.051 105.405 222.734 104.827C223.417 104.248 224.355 103.958 225.553 103.958C226.774 103.958 227.718 104.265 228.372 104.873C229.032 105.486 229.356 106.349 229.356 107.466C229.356 108.184 229.223 108.67 228.957 108.942C228.69 109.208 228.193 109.341 227.463 109.341H223.012V110.163C223.012 110.944 223.238 111.523 223.684 111.911C224.135 112.293 224.818 112.484 225.744 112.484C226.306 112.49 226.798 112.403 227.226 112.235ZM223.684 105.608C223.232 106.019 223.012 106.574 223.012 107.275V108.386H226.913C227.353 108.386 227.654 108.311 227.811 108.16C227.967 108.01 228.048 107.726 228.048 107.31C228.048 106.58 227.828 106.013 227.382 105.602C226.942 105.191 226.323 104.989 225.53 104.989C224.749 104.994 224.135 105.197 223.684 105.608Z" fill="white"/>
</svg>
