<svg width="239" height="58" viewBox="0 0 239 58" fill="none" xmlns="http://www.w3.org/2000/svg">
<g clip-path="url(#clip0_396_100)">
<path d="M161.083 57.8575L158.298 49.323H159.49L160.819 53.5296C161.188 54.6802 161.505 55.7199 161.732 56.7228H161.758C162.001 55.7358 162.354 54.6591 162.734 53.5454L164.179 49.3283H165.356L162.307 57.8628H161.093L161.083 57.8575Z" fill="#1D1D1B"/>
<path d="M167.376 49.323V57.8575H166.273V49.323H167.376Z" fill="#1D1D1B"/>
<path d="M171.174 57.8575L168.389 49.323H169.581L170.91 53.5296C171.279 54.6802 171.596 55.7199 171.823 56.7228H171.849C172.092 55.7358 172.445 54.6591 172.825 53.5454L174.27 49.3283H175.447L172.398 57.8628H171.185L171.174 57.8575Z" fill="#1D1D1B"/>
<path d="M177.019 55.1762L176.132 57.8627H174.993L177.889 49.3281H179.218L182.13 57.8627H180.954L180.041 55.1762H177.019ZM179.814 54.3158L178.981 51.8563C178.791 51.2968 178.664 50.7901 178.538 50.2993H178.511C178.385 50.806 178.248 51.3232 178.079 51.8457L177.245 54.3158H179.814Z" fill="#1D1D1B"/>
<path d="M183.386 49.323H184.488V56.9339H188.133V57.8575H183.386V49.323Z" fill="#1D1D1B"/>
<path d="M189.869 50.2623H187.273V49.3281H193.587V50.2623H190.982V57.8627H189.869V50.2623Z" fill="#1D1D1B"/>
<path d="M201.484 53.5032C201.484 56.443 199.701 58.0001 197.523 58.0001C195.344 58.0001 193.688 56.253 193.688 53.6668C193.688 50.9592 195.37 49.1858 197.649 49.1858C199.928 49.1858 201.484 50.9698 201.484 53.5032ZM194.864 53.6404C194.864 55.4666 195.851 57.0975 197.586 57.0975C199.321 57.0975 200.318 55.4877 200.318 53.5507C200.318 51.8512 199.432 50.0831 197.597 50.0831C195.761 50.0831 194.864 51.7667 194.864 53.6404Z" fill="#1D1D1B"/>
<path d="M205.446 56.5169C205.936 56.8231 206.659 57.0764 207.419 57.0764C208.547 57.0764 209.202 56.48 209.202 55.6197C209.202 54.8227 208.748 54.3635 207.593 53.9202C206.2 53.424 205.34 52.7062 205.34 51.5028C205.34 50.1728 206.443 49.1858 208.099 49.1858C208.975 49.1858 209.608 49.3864 209.987 49.6028L209.682 50.5C209.402 50.347 208.832 50.0936 208.062 50.0936C206.896 50.0936 206.453 50.7903 206.453 51.3709C206.453 52.1679 206.97 52.5637 208.152 53.0176C209.597 53.5771 210.33 54.2738 210.33 55.5247C210.33 56.8442 209.354 57.9842 207.345 57.9842C206.522 57.9842 205.625 57.7414 205.166 57.4406L205.446 56.5169Z" fill="#1D1D1B"/>
<path d="M213.221 55.1762L212.335 57.8627H211.195L214.091 49.3281H215.421L218.333 57.8627H217.156L216.244 55.1762H213.221ZM216.017 54.3158L215.183 51.8563C214.993 51.2968 214.867 50.7901 214.74 50.2993H214.714C214.587 50.806 214.45 51.3232 214.281 51.8457L213.448 54.3158H216.017Z" fill="#1D1D1B"/>
<path d="M219.583 57.8575V49.323H220.785L223.518 53.6404C224.151 54.6432 224.647 55.5405 225.048 56.4166L225.074 56.4061C224.974 55.266 224.947 54.2263 224.947 52.8962V49.323H225.987V57.8575H224.873L222.167 53.5243C221.571 52.5743 221.002 51.5978 220.574 50.6742L220.537 50.6847C220.601 51.7614 220.627 52.7854 220.627 54.2052V57.8523H219.588L219.583 57.8575Z" fill="#1D1D1B"/>
<path d="M229.537 50.2623H226.941V49.3281H233.255V50.2623H230.65V57.8627H229.537V50.2623Z" fill="#1D1D1B"/>
<path d="M238.62 53.8568H235.302V56.9339H239V57.8576H234.205V49.323H238.81V50.2467H235.302V52.9437H238.62V53.8568ZM238.409 47.386L236.8 48.8691H235.888L237.064 47.386H238.409Z" fill="#1D1D1B"/>
<path d="M-9.60873e-05 14.1924C1.14458 12.9257 2.28926 11.659 3.58691 10.2234C4.77378 11.8385 5.63889 13.026 6.46706 14.1502C3.32843 16.33 3.93506 17.3065 2.71126 18.1457C2.18376 18.4518 0.90193 15.8339 -0.00537109 14.6727V14.1924H-9.60873e-05Z" fill="#1D1D1B"/>
<path d="M9.84841 44.5991C11.6366 43.5752 12.3857 42.1396 12.5967 40.5509C12.5967 40.5509 13.715 40.7198 15.7828 40.4031C15.883 40.382 16.88 40.287 21.8227 38.4766C27.3034 36.4763 30.1677 32.0797 31.3968 26.6222C32.3938 22.2151 30.6161 18.8794 26.4858 16.8843C25.1459 16.2404 23.6795 15.8023 22.2236 15.4751C20.7677 15.1479 19.2538 15.0792 17.782 14.8998C19.5492 9.99652 21.311 8.92509 26.1324 9.86985C33.0901 11.2263 36.7404 16.8315 35.179 23.751C33.0057 33.4098 20.2877 44.4144 11.03 44.6519C10.7188 44.6572 10.4076 44.6308 9.84314 44.5991" fill="#1D1D1B"/>
<path d="M21.9388 29.103C20.0503 33.4784 14.6224 35.9433 9.45812 34.8877C5.91332 34.1646 2.59534 32.9242 1.60891 28.9657C0.601387 24.9333 2.45291 21.8879 5.55989 19.4759C6.24564 18.9428 6.97359 18.4625 7.691 17.9664C9.59 16.6469 11.3097 16.631 12.8658 18.832C12.1589 19.3281 11.4679 19.8137 10.8138 20.2781C7.9653 18.3094 6.69929 18.7053 5.44912 21.8721C4.39939 24.5111 5.09569 27.092 7.4378 28.8391C10.9404 31.4411 14.7964 31.3725 18.7632 30.2008C19.7866 29.8999 20.7836 29.5041 21.9335 29.103" fill="#1D1D1B"/>
<path d="M14.7173 12.3557C14.0684 11.5218 13.4143 10.7248 12.8288 9.89619C11.489 7.99611 10.5817 6.86133 10.5817 5.81629C10.5817 5.21987 12.7866 3.75787 15.3925 2.79199C15.6509 3.33035 15.9516 3.86871 16.1679 4.43873C16.7323 5.91129 17.2704 7.38913 17.724 8.61363C15.5032 9.56895 15.4663 10.4768 14.7173 12.3663" fill="#1D1D1B"/>
<path d="M75.9548 34.7821C74.9473 35.3046 72.7212 35.8271 69.9044 35.8271C62.4614 35.8271 57.9407 31.1667 57.9407 24.0308C57.9407 16.3091 63.2948 11.6433 70.4583 11.6433C73.2751 11.6433 75.2902 12.2344 76.1605 12.6884L75.2216 16.0979C74.1086 15.6124 72.5788 15.1954 70.6323 15.1954C65.869 15.1954 62.4244 18.188 62.4244 23.8249C62.4244 28.9763 65.4523 32.2803 70.5954 32.2803C72.3362 32.2803 74.1402 31.932 75.2532 31.4094L75.9495 34.7821H75.9548Z" fill="#1D1D1B"/>
<path d="M79.3203 10.7725H83.63V35.4788H79.3203V10.7725Z" fill="#1D1D1B"/>
<path d="M92.8084 13.8019C92.8084 15.0897 91.8695 16.0978 90.3714 16.0978C88.8733 16.0978 88.0082 15.0897 88.0082 13.8019C88.0082 12.514 88.9841 11.469 90.4083 11.469C91.8326 11.469 92.7715 12.4771 92.8084 13.8019ZM88.2508 35.4786V18.5362H92.5605V35.4786H88.2508Z" fill="#1D1D1B"/>
<path d="M97.1498 23.5822C97.1498 21.6346 97.1128 19.9984 97.0073 18.5364H100.763L100.969 21.0751H101.074C101.802 19.7504 103.649 18.1511 106.465 18.1511C109.419 18.1511 112.479 20.067 112.479 25.4242V35.4788H108.201V25.9098C108.201 23.4714 107.299 21.6293 104.967 21.6293C103.263 21.6293 102.082 22.8485 101.628 24.1364C101.491 24.5217 101.454 25.0442 101.454 25.5298V35.4788H97.1445V23.5769L97.1498 23.5822Z" fill="#1D1D1B"/>
<path d="M121.589 13.8019C121.589 15.0897 120.65 16.0978 119.152 16.0978C117.654 16.0978 116.789 15.0897 116.789 13.8019C116.789 12.514 117.764 11.469 119.189 11.469C120.613 11.469 121.552 12.4771 121.589 13.8019ZM117.037 35.4786V18.5362H121.346V35.4786H117.037Z" fill="#1D1D1B"/>
<path d="M137.271 33.1511H137.203C136.195 34.7872 134.423 35.864 131.954 35.864C128.162 35.864 124.859 32.5599 124.859 27.2714C124.859 21.0803 128.826 18.1562 132.44 18.1562C134.803 18.1562 136.475 19.1643 137.377 20.7689L137.446 20.8005L137.551 18.5415H141.692C141.623 20.0722 141.555 21.6714 141.555 23.4501V42.377H137.277V33.1563L137.271 33.1511ZM137.271 25.5296C137.271 25.1813 137.235 24.796 137.166 24.4846C136.781 22.8853 135.425 21.5289 133.516 21.5289C130.767 21.5289 129.206 23.8618 129.206 27.0602C129.206 30.2587 130.704 32.486 133.415 32.486C135.156 32.486 136.58 31.3724 137.066 29.6676C137.203 29.2506 137.271 28.7598 137.271 28.3428V25.5243V25.5296Z" fill="#1D1D1B"/>
<path d="M161.294 30.4012C161.294 32.4174 161.362 34.0906 161.431 35.4787H157.675L157.464 32.903H157.396C156.662 34.1222 154.996 35.8587 151.973 35.8587C148.95 35.8587 146.06 34.0114 146.06 28.48V18.531H150.338V27.7517C150.338 30.5701 151.24 32.3805 153.503 32.3805C155.207 32.3805 156.32 31.1613 156.773 30.0846C156.91 29.6993 157.016 29.2506 157.016 28.7598V18.531H161.294V30.396V30.4012Z" fill="#1D1D1B"/>
<path d="M168.937 28.2057C169.043 31.267 171.443 32.5917 174.154 32.5917C176.138 32.5917 177.562 32.312 178.849 31.8264L179.477 34.7821C178.016 35.3733 176.001 35.8272 173.564 35.8272C168.067 35.8272 164.833 32.4492 164.833 27.2662C164.833 22.5688 167.687 18.1511 173.11 18.1511C178.533 18.1511 180.41 22.6744 180.41 26.3954C180.41 27.1976 180.342 27.8204 180.273 28.2057H168.937ZM176.375 25.2131C176.407 23.6455 175.716 21.0699 172.862 21.0699C170.219 21.0699 169.106 23.4714 168.932 25.2131H176.375Z" fill="#1D1D1B"/>
<path d="M208.009 34.7821C207.002 35.3046 204.776 35.8271 201.959 35.8271C194.516 35.8271 189.995 31.1667 189.995 24.0308C189.995 16.3091 195.349 11.6433 202.513 11.6433C205.33 11.6433 207.345 12.2344 208.215 12.6884L207.276 16.0979C206.163 15.6124 204.633 15.1954 202.687 15.1954C197.924 15.1954 194.479 18.188 194.479 23.8249C194.479 28.9763 197.507 32.2803 202.65 32.2803C204.391 32.2803 206.195 31.932 207.308 31.4094L208.004 34.7821H208.009Z" fill="#1D1D1B"/>
<path d="M216.281 12.0286V35.4787H212.003V12.0286H216.281Z" fill="#1D1D1B"/>
<path d="M238.325 34.7821C237.317 35.3046 235.091 35.8271 232.274 35.8271C224.831 35.8271 220.311 31.1667 220.311 24.0308C220.311 16.3091 225.665 11.6433 232.828 11.6433C235.645 11.6433 237.66 12.2344 238.531 12.6884L237.592 16.0979C236.479 15.6124 234.949 15.1954 233.002 15.1954C228.239 15.1954 224.794 18.188 224.794 23.8249C224.794 28.9763 227.822 32.2803 232.965 32.2803C234.706 32.2803 236.51 31.932 237.623 31.4094L238.32 34.7821H238.325Z" fill="#1D1D1B"/>
<path d="M48.1609 46.9162C47.8233 46.9162 47.549 46.6417 47.549 46.3039V0.612249C47.549 0.274456 47.8233 0 48.1609 0C48.4985 0 48.7728 0.274456 48.7728 0.612249V46.3092C48.7728 46.647 48.4985 46.9215 48.1609 46.9215V46.9162Z" fill="#1D1D1B"/>
</g>
<defs>
<clipPath id="clip0_396_100">
<rect width="239" height="58" fill="white"/>
</clipPath>
</defs>
</svg>
