<svg width="213" height="62" viewBox="0 0 213 62" fill="none" xmlns="http://www.w3.org/2000/svg">
<path d="M60.4237 11.4566C60.4237 5.31074 64.7511 0.500977 71.3344 0.500977C77.7334 0.500977 79.4828 3.9747 79.4828 3.9747V5.97877H77.135C77.135 5.97877 76.1222 3.084 71.4264 3.084C66.5466 3.084 63.6463 6.73586 63.6463 11.4566C63.6463 16.1773 66.5005 19.9627 71.4264 19.9627C76.0301 19.9627 77.2731 16.9344 77.2731 16.9344H79.6209V18.9384C79.6209 18.9384 77.6414 22.5458 71.3344 22.5458C64.1527 22.5903 60.4237 17.5578 60.4237 11.4566Z" fill="black"/>
<path d="M82.9818 0.812744H85.9281V22.3231H82.9818V0.812744Z" fill="black"/>
<path d="M90.3015 7.98291H93.2479V22.3231H90.3015V7.98291Z" fill="black"/>
<path d="M97.6674 7.98289H100.337L100.568 9.89789C101.304 8.91812 102.685 7.67114 105.079 7.67114C109.176 7.67114 110.696 10.3878 110.696 13.7279V22.2786H107.749V13.8615C107.749 11.5902 106.783 10.0315 104.389 10.0315C101.534 10.0315 100.614 11.991 100.614 13.817V22.2341H97.6674V7.98289Z" fill="black"/>
<path d="M114.931 7.98291H117.877V22.3231H114.931V7.98291Z" fill="black"/>
<path d="M133.484 15.1085C133.484 12.3473 131.734 10.1206 128.926 10.1206C125.796 10.1206 124.369 12.3473 124.369 15.1085C124.369 17.8696 125.842 20.1409 128.926 20.1409C131.734 20.1409 133.484 17.8696 133.484 15.1085ZM133.484 20.0518C132.379 21.6106 130.63 22.5903 128.328 22.5903C123.954 22.5903 121.376 19.2057 121.376 15.1085C121.376 11.0113 123.954 7.67114 128.328 7.67114C130.63 7.67114 132.379 8.65092 133.484 10.2096L133.76 7.98289H136.43V29.4932H133.484V20.0518Z" fill="black"/>
<path d="M140.62 16.5336V7.98291H143.566V16.4C143.566 18.6713 144.533 20.23 146.927 20.23C149.781 20.23 150.702 18.2705 150.702 16.4445V8.02744H153.648V22.3677H150.978L150.794 20.4527C150.057 21.4324 148.63 22.6794 146.282 22.6794C142.185 22.5904 140.62 19.8737 140.62 16.5336Z" fill="black"/>
<path d="M168.38 13.3716C168.38 11.5011 167.137 10.1206 164.512 10.1206C161.842 10.1206 160.691 11.5011 160.277 13.3716H168.38ZM157.147 15.1085C157.147 11.0113 159.725 7.67114 164.466 7.67114C169.254 7.67114 171.234 10.3432 171.234 13.9951C171.234 14.8858 171.096 15.5538 171.096 15.5538H160.093C160.231 18.3595 161.796 20.1409 164.789 20.1409C168.149 20.1409 168.978 18.4041 168.978 18.4041H170.912V20.2745C170.912 20.2745 169.438 22.6349 164.789 22.6349C159.771 22.5903 157.147 19.4729 157.147 15.1085Z" fill="black"/>
<path d="M191.996 14.9749C191.996 12.2137 190.247 9.987 187.439 9.987C184.354 9.987 182.881 12.2137 182.881 14.9749C182.881 17.7361 184.354 20.0074 187.439 20.0074C190.247 20.0074 191.996 17.7361 191.996 14.9749ZM179.889 14.9749C179.889 10.8777 182.513 7.53758 186.84 7.53758C189.142 7.53758 190.891 8.51734 191.996 10.0761V0.679199H194.943V22.1896H192.273L191.996 19.9628C190.891 21.5215 189.142 22.5013 186.84 22.5013C182.513 22.4568 179.889 19.0721 179.889 14.9749Z" fill="black"/>
<path d="M209.628 13.2378C209.628 11.3673 208.385 9.98677 205.761 9.98677C203.091 9.98677 201.94 11.3673 201.526 13.2378H209.628ZM198.441 14.9747C198.441 10.8775 201.019 7.53735 205.761 7.53735C210.549 7.53735 212.529 10.2094 212.529 13.8613C212.529 14.752 212.39 15.42 212.39 15.42H201.388C201.526 18.2257 203.091 20.0071 206.083 20.0071C209.444 20.0071 210.273 18.2703 210.273 18.2703H212.206V20.1407C212.206 20.1407 210.733 22.5011 206.083 22.5011C201.065 22.4565 198.441 19.3391 198.441 14.9747Z" fill="black"/>
<path d="M118.016 2.37147C118.016 3.21763 117.325 3.93019 116.404 3.93019C115.484 3.93019 114.793 3.21763 114.793 2.37147C114.793 1.5253 115.53 0.812744 116.404 0.812744C117.279 0.812744 118.016 1.48077 118.016 2.37147Z" fill="black"/>
<path d="M93.2478 2.37147C93.2478 3.21763 92.5112 3.93019 91.6365 3.93019C90.7619 3.93019 90.0253 3.21763 90.0253 2.37147C90.0253 1.5253 90.7619 0.812744 91.6365 0.812744C92.5573 0.812744 93.2478 1.48077 93.2478 2.37147Z" fill="black"/>
<path d="M41.5948 18.493C41.5488 21.076 39.293 22.5011 36.1625 22.5011H6.05463C4.35128 22.5011 3.01621 22.2339 2.09548 21.4768C1.17475 20.7197 0.714387 19.5173 0.714387 17.6468L0.622314 7.9382C0.622314 5.66692 1.26683 4.2418 2.32567 3.44017C3.38451 2.59401 4.90371 2.37134 6.6531 2.37134H21.9372L21.9833 16.667H28.4284V9.05157C28.4284 7.0475 28.7046 5.35518 29.7174 4.19727C30.7302 3.03936 32.4336 2.37134 35.2878 2.37134H46.9811V8.47262H52.6436V13.2824H46.9351V16.8452H46.3366V12.7034H52.0451V9.05157H46.3826V2.95029H35.3799C30.3159 2.99483 29.1189 4.99889 29.0729 9.00703V16.667H33.7686V17.246H21.3848L21.3388 2.95029H6.69914C3.43054 2.95029 1.22079 3.66285 1.22079 8.29448L1.26683 17.2905C1.26683 21.1651 2.92414 21.9667 6.23877 21.9667H17.4257C16.0446 21.3432 14.9397 20.0072 14.9397 17.6023C14.9397 17.5132 14.9397 17.3796 14.9397 17.2905H8.81682C8.40249 17.2905 7.94213 17.246 7.57383 17.0233C7.20554 16.8006 6.92932 16.3998 6.97536 15.7318V10.1204C6.97536 9.40785 7.20554 9.00703 7.57383 8.78436C7.94213 8.56169 8.40249 8.56169 8.86286 8.56169H15.5842H15.6302V17.8695C15.6302 20.2298 17.1494 22.0112 20.2799 22.0112H36.2546C38.8787 21.9667 40.9043 20.9869 40.9503 18.582V13.3715H35.518V8.56169H41.4107V9.14064H36.1165V12.748H41.5948V18.493ZM7.5278 10.1204V15.4646C7.5278 16.4889 7.89609 16.6225 8.81682 16.6225H15.0318V9.05157H8.72475C8.12627 9.09611 7.5278 9.05157 7.5278 10.1204Z" fill="black"/>
<path d="M0.622314 30.072H8.12627V55.546H21.7071V61.4246H0.622314V30.072Z" fill="black"/>
</svg>
