<svg width="144" height="53" viewBox="0 0 144 53" fill="none" xmlns="http://www.w3.org/2000/svg">
<g clip-path="url(#clip0_365_657)">
<path d="M17.4141 53C16.8955 53 16.4773 52.5837 16.4773 52.0748V9.43691C16.4773 8.92475 16.8955 8.51172 17.4141 8.51172C17.9327 8.51172 18.3509 8.92475 18.3509 9.43691V52.0748C18.3542 52.587 17.9327 53 17.4141 53Z" fill="#1D1D1B"/>
<path d="M17.1631 48.3112C15.5036 48.3112 14.2356 47.7991 13.3992 46.788C11.9539 45.0433 12.4557 42.4958 12.4792 42.3867C12.5829 41.8845 13.078 41.564 13.5832 41.6631C14.0884 41.7655 14.4163 42.2512 14.3159 42.7535C14.3059 42.7997 13.978 44.5708 14.8546 45.6216C15.3196 46.18 16.0958 46.4608 17.1631 46.4608C19.5151 46.4608 20.6559 45.3539 20.6559 43.074C20.6559 40.9229 19.7426 40.1233 17.2902 40.1233H16.7382C14.1085 40.1332 10.8398 40.1431 9.07329 38.3787C8.25695 37.5625 7.85213 36.4655 7.86885 35.1207C7.88558 33.8783 8.32386 32.8474 9.16362 32.0577C10.6123 30.6963 13.2219 30.1016 17.1329 30.237C23.0146 30.4419 26.668 30.3163 27.9461 29.0607C28.4546 28.5618 28.6654 27.7985 28.6319 26.5925C28.555 23.9788 27.0863 23.7574 20.2879 23.8863C19.4147 23.9028 18.4812 23.9193 17.4876 23.9292C16.1493 23.9391 14.8679 23.9656 13.6501 23.9887C7.45734 24.1143 2.98421 24.2002 1.01362 22.1218C0.237434 21.3024 -0.0937851 20.2054 0.0233126 18.8572C0.224051 16.5575 2.64295 13.8843 8.81902 13.9471C10.3078 13.9603 13.7873 14.1916 13.9178 16.0618C13.9947 17.1688 13.6367 18.1138 12.884 18.7945C10.9736 20.5226 7.12612 19.984 6.69453 19.9146C6.18265 19.8353 5.8347 19.3595 5.915 18.8539C5.99529 18.3484 6.47707 18.0047 6.98895 18.084C7.85547 18.2162 10.5654 18.3814 11.6193 17.4265C11.81 17.2547 12.0543 16.9573 12.0509 16.3526C11.2881 15.8372 7.50418 15.3878 4.53994 16.4319C2.88049 17.0168 1.98721 17.8858 1.88684 19.0158C1.79316 20.0996 2.12103 20.582 2.37865 20.853C3.77713 22.33 8.11643 22.2441 13.6066 22.135C14.8311 22.1119 16.1226 22.0855 17.4675 22.0756C18.4545 22.069 19.3812 22.0491 20.2477 22.0359C26.3402 21.9203 30.365 21.8476 30.5022 26.5396C30.5523 28.2776 30.1609 29.4969 29.2643 30.3758C27.4743 32.1337 23.9045 32.3286 17.0627 32.0874C12.9074 31.9387 11.1744 32.7185 10.4517 33.3992C9.97661 33.8453 9.74911 34.4004 9.73907 35.1471C9.72569 35.9897 9.94316 36.6208 10.4015 37.0768C11.616 38.2895 14.4497 38.2795 16.7281 38.2729H17.2868C20.7663 38.2729 22.5295 39.8887 22.5295 43.074C22.5295 46.3551 20.5254 48.3112 17.1631 48.3112Z" fill="#1D1D1B"/>
<path d="M17.3538 9.74751C14.6338 9.74751 12.4189 7.5601 12.4189 4.87375C12.4189 2.18741 14.6304 0 17.3538 0C20.0771 0 22.2886 2.18741 22.2886 4.87375C22.2886 7.5601 20.0738 9.74751 17.3538 9.74751ZM17.3538 1.85368C15.6676 1.85368 14.2925 3.20842 14.2925 4.87706C14.2925 6.5457 15.6642 7.90044 17.3538 7.90044C19.0433 7.90044 20.415 6.5457 20.415 4.87706C20.415 3.20842 19.04 1.85368 17.3538 1.85368Z" fill="#1D1D1B"/>
<path d="M36.5846 15.6588L37.5415 14.1521C38.4147 14.8493 39.3849 15.1797 40.4087 15.1797C41.2819 15.1797 41.9343 14.8096 41.9343 14.0298C41.9343 13.25 41.3789 12.9229 39.9269 12.5231C38.2775 12.0704 36.9894 11.4426 36.9894 9.75745C36.9894 8.07229 38.4013 6.95215 40.4957 6.95215C41.9242 6.95215 42.9882 7.34866 43.751 7.93681L42.8778 9.36094C42.212 8.88182 41.4659 8.59436 40.4823 8.59436C39.5957 8.59436 38.9299 8.92147 38.9299 9.63519C38.9299 10.3489 39.5656 10.5505 40.9105 10.9503C42.5599 11.4294 43.8346 12.0572 43.8346 13.9076C43.8346 15.7579 42.4629 16.8219 40.3853 16.8219C38.7593 16.8219 37.5548 16.399 36.5846 15.6588Z" fill="#1D1D1B"/>
<path d="M46.6818 11.9118C46.6818 9.11971 48.8564 6.95874 51.8374 6.95874C54.8184 6.95874 56.9362 9.06685 56.9362 11.9118C56.9362 14.7567 54.7883 16.8252 51.8374 16.8252C48.8564 16.8252 46.6818 14.6874 46.6818 11.9118ZM54.9823 11.9118C54.9823 10.0779 53.6374 8.70999 51.8374 8.70999C50.0374 8.70999 48.6356 10.0912 48.6356 11.9118C48.6356 13.7324 49.994 15.0872 51.8374 15.0872C53.6809 15.0872 54.9823 13.7291 54.9823 11.9118Z" fill="#1D1D1B"/>
<path d="M59.7867 11.8986C59.7867 9.1065 61.851 6.95874 64.9692 6.95874C66.6721 6.95874 67.7393 7.56011 68.1843 7.89054L67.3379 9.39727C67.1171 9.23206 66.3409 8.72651 65.0796 8.72651C63.0722 8.72651 61.754 9.97221 61.754 11.8887C61.754 13.8051 63.0554 15.064 65.0796 15.064C66.3409 15.064 67.1037 14.5849 67.3513 14.4197L68.1843 15.9099C67.7393 16.237 66.7156 16.8252 64.9692 16.8252C61.8376 16.8252 59.7867 14.6741 59.7867 11.8986Z" fill="#1D1D1B"/>
<path d="M71.3392 7.08105H73.2529V16.6997H71.3392V7.08105Z" fill="#1D1D1B"/>
<path d="M83.9892 15.0442V16.6997H77.2711V7.08101H83.949V8.74965H79.1815V11.0064H83.3803V12.6751H79.1815V15.0409H83.9892V15.0442ZM79.1949 6.39703L78.78 5.28681L81.9684 3.80981L82.5907 5.4388L79.1949 6.39703Z" fill="#1D1D1B"/>
<path d="M94.906 8.7497H91.6774V16.6997H89.7671V8.7497H86.5251V7.08105H94.906V8.7497Z" fill="#1D1D1B"/>
<path d="M104.602 15.0442V16.6997H97.8835V7.08101H104.561V8.74965H99.7939V11.0064H103.993V12.6751H99.7939V15.0409H104.602V15.0442ZM99.8073 6.39703L99.3924 5.28681L102.581 3.80981L103.203 5.4388L99.8073 6.39703Z" fill="#1D1D1B"/>
<path d="M45.6313 22.5813L41.5864 32.1999H40.3518L36.2936 22.5813H38.4415L40.4087 27.6731L41.031 29.616L41.6399 27.6731L43.5536 22.5813H45.6313Z" fill="#1D1D1B"/>
<path d="M53.4166 30.3397H49.2479L48.4717 32.1999H46.4476L50.7167 22.5813H51.978L56.2169 32.1999H54.1928L53.4166 30.3397ZM49.8568 28.7404H52.8077L51.339 25.2643L49.8568 28.7404Z" fill="#1D1D1B"/>
<path d="M58.6224 28.0696V22.5813H60.5328V28.2183C60.5328 29.5169 61.309 30.6139 62.9149 30.6139C64.5208 30.6139 65.2836 29.5202 65.2836 28.2183V22.5813H67.1806V28.0696C67.1806 30.8485 65.4777 32.3255 62.8982 32.3255C60.3187 32.3255 58.6224 30.8452 58.6224 28.0696Z" fill="#1D1D1B"/>
<path d="M79.9442 27.3857C79.9442 30.2736 77.9067 32.2032 74.8321 32.2032H71.0782V22.5813H74.8321C77.9067 22.5813 79.9442 24.4978 79.9442 27.3857ZM78.0037 27.4121C78.0037 25.5089 76.7859 24.2499 74.7484 24.2499H72.9886V30.5313H74.7484C76.7859 30.5313 78.0037 29.2856 78.0037 27.4121Z" fill="#1D1D1B"/>
<path d="M82.8115 27.412C82.8115 24.62 84.9862 22.459 87.9672 22.459C90.9481 22.459 93.0659 24.5671 93.0659 27.412C93.0659 30.257 90.918 32.3254 87.9672 32.3254C85.0163 32.3254 82.8115 30.1909 82.8115 27.412ZM91.1087 27.412C91.1087 25.5782 89.7638 24.2102 87.9638 24.2102C86.1639 24.2102 84.762 25.5914 84.762 27.412C84.762 29.2327 86.1204 30.5874 87.9638 30.5874C89.8073 30.5874 91.1087 29.2327 91.1087 27.412Z" fill="#1D1D1B"/>
<path d="M96.4985 22.5813H98.4089V32.1999H96.4985V22.5813Z" fill="#1D1D1B"/>
<path d="M101.594 31.1622L102.551 29.6555C103.424 30.3527 104.394 30.6831 105.418 30.6831C106.291 30.6831 106.944 30.313 106.944 29.5332C106.944 28.7534 106.388 28.4263 104.936 28.0265C103.287 27.5738 101.999 26.946 101.999 25.2609C101.999 23.5757 103.411 22.4556 105.505 22.4556C106.93 22.4556 107.997 22.8521 108.76 23.4402L107.887 24.8644C107.221 24.3852 106.475 24.0978 105.492 24.0978C104.605 24.0978 103.939 24.4249 103.939 25.1386C103.939 25.8523 104.575 26.0539 105.92 26.4537C107.569 26.9328 108.844 27.5606 108.844 29.4077C108.844 31.2548 107.472 32.322 105.395 32.322C103.772 32.322 102.564 31.8991 101.594 31.1622Z" fill="#1D1D1B"/>
<path d="M119.008 30.5445V32.1999H112.29V22.5813H118.968V24.2499H114.2V26.5067H118.399V28.1754H114.2V30.5412H119.008V30.5445Z" fill="#1D1D1B"/>
<path d="M134.927 27.3857C134.927 30.2736 132.889 32.2032 129.814 32.2032H126.061V22.5813H129.814C132.889 22.5813 134.927 24.4978 134.927 27.3857ZM132.986 27.4121C132.986 25.5089 131.768 24.2499 129.731 24.2499H127.971V30.5313H129.731C131.768 30.5313 132.986 29.2856 132.986 27.4121Z" fill="#1D1D1B"/>
<path d="M144 30.5445V32.1999H137.282V22.5813H143.96V24.2499H139.192V26.5067H143.391V28.1754H139.192V30.5412H144V30.5445Z" fill="#1D1D1B"/>
<path d="M45.852 47.7034L45.7684 41.9275L43.0818 46.5799H41.8908L39.2578 41.9275L39.1607 47.7034H37.2905L37.595 38.0847H38.7994L42.4863 44.4057L46.2535 38.0847H47.4446L47.7356 47.7034H45.852Z" fill="#1D1D1B"/>
<path d="M58.3481 46.0479V47.7033H51.6267V38.0847H58.3046V39.7533H53.5371V42.0101H57.7359V43.6788H53.5371V46.0479H58.3481ZM53.5538 37.3974L53.1389 36.2905L56.324 34.8135L56.9463 36.4425L53.5538 37.3974Z" fill="#1D1D1B"/>
<path d="M70.7738 42.8858C70.7738 45.7737 68.7363 47.7034 65.6617 47.7034H61.9078V38.0847H65.6617C68.7363 38.0847 70.7738 39.9979 70.7738 42.8858ZM68.8333 42.9122C68.8333 41.009 67.6155 39.7501 65.578 39.7501H63.8182V46.0314H65.578C67.6155 46.0347 68.8333 44.789 68.8333 42.9122Z" fill="#1D1D1B"/>
<path d="M80.9546 46.0479V47.7034H74.2366V38.0847H80.9145V39.7534H76.1469V42.0102H80.3457V43.6788H76.1469V46.0479H80.9546Z" fill="#1D1D1B"/>
<path d="M83.7382 42.8991C83.7382 40.107 85.8024 37.9592 88.9206 37.9592C90.6235 37.9592 91.6908 38.5606 92.1357 38.891L91.2893 40.3978C91.0685 40.2325 90.2923 39.727 89.031 39.727C87.0236 39.727 85.7054 40.9727 85.7054 42.8892C85.7054 44.8056 87.0069 46.0645 89.031 46.0645C90.2923 46.0645 91.0551 45.5854 91.3027 45.4202L92.1324 46.9104C91.6874 47.2375 90.6636 47.8257 88.9172 47.8257C85.789 47.8257 83.7382 45.6779 83.7382 42.8991Z" fill="#1D1D1B"/>
<path d="M95.2941 38.0813H97.2044V47.6999H95.2941V38.0813Z" fill="#1D1D1B"/>
<path d="M109.992 38.0814V47.8091H108.911L103.106 41.3791V47.7001H101.236V37.9856H102.317L108.108 44.4024V38.0814H109.992Z" fill="#1D1D1B"/>
<path d="M120.728 46.0479V47.7034H114.01V38.0847H120.688V39.7534H115.92V42.0102H120.119V43.6788H115.92V46.0479H120.728Z" fill="#1D1D1B"/>
</g>
<defs>
<clipPath id="clip0_365_657">
<rect width="144" height="53" fill="white"/>
</clipPath>
</defs>
</svg>
