<?xml version="1.0" encoding="utf-8"?>
<!-- Generator: Adobe Illustrator 28.2.0, SVG Export Plug-In . SVG Version: 6.00 Build 0)  -->
<svg version="1.1" id="Calque_3" xmlns="http://www.w3.org/2000/svg" xmlns:xlink="http://www.w3.org/1999/xlink" x="0px" y="0px"
	 viewBox="0 0 595.28 841.89" style="enable-background:new 0 0 595.28 841.89;" xml:space="preserve">
<style type="text/css">
	.st0{fill:#878787;}
</style>
<g>
	<path d="M226.59,370.4c-5.7-5.01-8.56-12.33-8.56-21.96v-24.74c0-9.63,2.81-16.95,8.44-21.96c5.62-5.01,13.76-7.52,24.39-7.52
		c7.32,0,13.37,1.2,18.15,3.58c4.78,2.39,8.63,6.01,11.56,10.87l-9.71,6.82c-2.47-3.7-5.18-6.38-8.15-8.03
		c-2.97-1.66-6.88-2.49-11.73-2.49c-12.87,0-19.31,6.24-19.31,18.73v24.74c0,12.48,6.51,18.73,19.54,18.73
		c5.16,0,9.32-0.89,12.49-2.66c3.16-1.77,5.9-4.55,8.21-8.32l9.71,7.17c-3.62,5.09-7.71,8.79-12.25,11.1
		c-4.55,2.31-10.56,3.47-18.03,3.47C240.54,377.91,232.29,375.41,226.59,370.4z"/>
	<path d="M313,374.21c-2.43-2.46-4.57-6.82-6.42-13.06l-19.19-65.55h13.64l18.5,65.32c0.46,1.54,0.94,2.66,1.45,3.35
		c0.5,0.69,1.17,1.04,2.02,1.04c0.77,0,1.43-0.35,1.97-1.04c0.54-0.69,1-1.81,1.39-3.35l18.5-65.32h13.64l-19.19,65.55
		c-1.85,6.24-3.99,10.6-6.42,13.06c-2.43,2.47-5.72,3.7-9.88,3.7C318.76,377.91,315.43,376.68,313,374.21z"/>
	<path d="M372.02,370.22c-4.47-4.2-6.7-10.38-6.7-18.56v-31.21c0-8.17,2.23-14.35,6.7-18.56c4.47-4.2,11.6-6.3,21.39-6.3h27.28
		v10.75h-27.28c-4.93,0-8.58,1.14-10.92,3.41c-2.35,2.27-3.53,5.84-3.53,10.69v10.29h36.42v10.64h-36.42v10.29
		c0,4.86,1.17,8.42,3.53,10.69c2.35,2.27,5.99,3.41,10.92,3.41h27.75v10.75h-27.75C383.62,376.52,376.49,374.43,372.02,370.22z"/>
	<path d="M440.8,370.4c-5.7-5.01-8.56-12.33-8.56-21.96v-24.74c0-9.63,2.81-16.95,8.44-21.96c5.62-5.01,13.76-7.52,24.39-7.52
		c7.32,0,13.37,1.2,18.15,3.58c4.78,2.39,8.63,6.01,11.56,10.87l-9.71,6.82c-2.47-3.7-5.18-6.38-8.15-8.03
		c-2.97-1.66-6.88-2.49-11.73-2.49c-12.87,0-19.31,6.24-19.31,18.73v24.74c0,12.48,6.51,18.73,19.54,18.73
		c5.16,0,9.32-0.89,12.49-2.66c3.16-1.77,5.9-4.55,8.21-8.32l9.71,7.17c-3.62,5.09-7.71,8.79-12.25,11.1
		c-4.55,2.31-10.56,3.47-18.04,3.47C454.75,377.91,446.51,375.41,440.8,370.4z"/>
</g>
<g>
	<path class="st0" d="M149.43,484.46c-20.68-7.03-34.14-17.21-47.15-27.06c-10.72-8.11-20.84-15.77-34.49-21.56
		c-1.8-0.71-2.95-1.73-3.51-3.09c-0.98-2.41,0.08-5.48,0.8-7.09c9.93-22.24,40.91-50.47,41.32-50.85l1.68-1.78
		c8.15-8.68,12.26-18.48,16.23-27.97c1.14-2.73,2.16-5.58,3.14-8.35c3.62-10.21,7.37-20.76,18.51-27.23
		c3.3-1.92,12.53-6.18,12.63-6.22c0.82-0.38,1.21-1.33,0.88-2.17c-0.32-0.84-1.25-1.29-2.11-1.02c-7.06,2.2-12.19,4.3-16.14,6.59
		c-17.14,9.95-23,23.92-28.66,37.44c-3.8,9.07-7.39,17.64-14.32,25.03l-1.68,1.79c-19.71,20.99-25.66,27.33-36.42,51.41
		c-3.15,7.06-0.92,15.39,5.31,19.81c3.26,2.32,6.47,4.97,9.85,7.78c13.7,11.34,30.75,25.46,72.18,37.69
		c0.44,0.13,1.04,0.18,1.28,0.2c0.04,0,0.08,0.01,0.12,0.01c0.81,0,1.52-0.57,1.68-1.37C150.73,485.58,150.24,484.74,149.43,484.46z
		"/>
	<path class="st0" d="M200.52,447.88c-1.89-6.23-3.95-12.4-5.95-18.38c-6.52-19.49-12.68-37.9-13.3-58.52
		c-0.06-1.83,0.43-5.51,0.43-5.54c0.11-0.84-0.41-1.63-1.22-1.87c-2.5-0.73-5.13,0.26-6.58,2.53l-1.55,2.68
		c-11.53,20.03-23.46,40.74-60.11,64.88c-0.72,0.47-0.97,1.4-0.6,2.18c0.38,0.77,1.26,1.15,2.08,0.88
		c6.95-2.31,32.5-18.33,39.59-24.82c4.5-3.88,15.17-14.35,21.38-23.31c10.58,42.28,21.69,59.86,23.04,61.07
		c0.32,0.29,0.73,0.44,1.14,0.44c0.32,0,0.64-0.09,0.92-0.27C200.45,449.41,200.74,448.61,200.52,447.88z"/>
</g>
<g>
	<path d="M225.68,415.75c-1.63-1.46-2.44-3.6-2.44-6.4v-7.18c0-2.76,0.79-4.88,2.38-6.35c1.58-1.47,3.87-2.21,6.86-2.21
		c1.96,0,3.63,0.31,5.02,0.93c1.39,0.62,2.54,1.58,3.44,2.88l-1.72,1.25c-0.79-1.06-1.71-1.84-2.78-2.34
		c-1.07-0.5-2.35-0.76-3.86-0.76c-2.25,0-3.96,0.56-5.14,1.69c-1.18,1.12-1.77,2.76-1.77,4.92v7.18c0,2.18,0.6,3.83,1.8,4.96
		c1.2,1.12,2.97,1.69,5.31,1.69c1.55,0,2.87-0.26,3.94-0.78c1.08-0.52,2.01-1.33,2.8-2.43l1.72,1.31c-1.01,1.35-2.18,2.33-3.51,2.93
		c-1.33,0.61-2.97,0.91-4.92,0.91C229.69,417.94,227.31,417.21,225.68,415.75z"/>
	<path d="M257.74,415.7c0.15,0.26,0.42,0.56,0.83,0.89l-1.52,1.35c-0.56-0.32-0.98-0.67-1.25-1.08c-0.27-0.41-0.43-0.93-0.47-1.59
		c-0.58,0.85-1.38,1.51-2.39,1.97c-1.01,0.46-2.15,0.69-3.4,0.69c-1.71,0-3.02-0.4-3.94-1.2c-0.92-0.8-1.38-1.95-1.38-3.45
		c0-1.39,0.48-2.48,1.45-3.27c0.97-0.79,2.43-1.29,4.38-1.52l2.63-0.3c0.74-0.09,1.3-0.2,1.67-0.34c0.37-0.13,0.62-0.33,0.76-0.59
		c0.13-0.26,0.19-0.62,0.17-1.1c-0.2-2.09-1.66-3.14-4.38-3.14c-1.01,0-1.88,0.16-2.6,0.49c-0.72,0.33-1.34,0.84-1.85,1.53
		l-1.55-1.15c1.06-1.71,3.06-2.56,6-2.56c2.16,0,3.8,0.46,4.94,1.38c1.13,0.92,1.7,2.25,1.7,3.98v7.99
		C257.52,415.11,257.6,415.44,257.74,415.7z M253.85,414.97c0.97-0.81,1.45-1.88,1.45-3.2v-2.73c-0.27,0.2-0.6,0.35-0.98,0.45
		s-0.91,0.19-1.58,0.25l-2.49,0.27c-1.28,0.16-2.25,0.51-2.92,1.06c-0.66,0.55-0.99,1.28-0.99,2.17c0,1.96,1.24,2.93,3.71,2.93
		C251.61,416.19,252.88,415.78,253.85,414.97z"/>
	<path d="M267.17,417.28c-0.9-0.44-1.63-1.08-2.19-1.94v2.22h-2.26V396.4c0-0.43-0.07-0.76-0.2-1.01c-0.14-0.25-0.42-0.55-0.84-0.91
		l1.48-1.31c0.67,0.38,1.15,0.81,1.42,1.28c0.27,0.47,0.4,1.15,0.4,2.02v7.52c0.58-0.85,1.32-1.51,2.21-1.96
		c0.89-0.45,1.9-0.67,3.05-0.67c1.39,0,2.62,0.32,3.67,0.96c1.06,0.64,1.87,1.55,2.44,2.71c0.57,1.17,0.86,2.53,0.86,4.08v1.08
		c0,1.55-0.29,2.91-0.86,4.08s-1.38,2.07-2.43,2.71s-2.26,0.96-3.66,0.96C269.1,417.94,268.07,417.72,267.17,417.28z M273.54,414.5
		c0.92-1.08,1.38-2.52,1.38-4.31v-1.08c0-1.8-0.46-3.24-1.38-4.31c-0.92-1.08-2.15-1.62-3.67-1.62c-1.3,0-2.35,0.3-3.14,0.91
		c-0.79,0.61-1.37,1.52-1.75,2.73v5.66c0.38,1.21,0.97,2.12,1.75,2.73c0.79,0.61,1.83,0.91,3.14,0.91
		C271.39,416.12,272.62,415.58,273.54,414.5z"/>
	<path d="M281.97,397.68c-0.31-0.31-0.47-0.69-0.47-1.11c0-0.43,0.16-0.79,0.47-1.1c0.31-0.3,0.69-0.46,1.11-0.46
		s0.79,0.15,1.1,0.46c0.3,0.3,0.45,0.67,0.45,1.1c0,0.43-0.15,0.8-0.45,1.11c-0.3,0.32-0.67,0.47-1.1,0.47
		S282.28,397.99,281.97,397.68z M282.32,416.64c-0.26-0.48-0.39-1.15-0.39-2.01v-12.91h2.26v12.98c0,0.4,0.07,0.74,0.22,0.99
		c0.15,0.26,0.42,0.56,0.83,0.89l-1.48,1.35C283.06,417.56,282.58,417.13,282.32,416.64z"/>
	<path d="M301.59,402.79c0.9,0.96,1.35,2.28,1.35,3.96v10.82h-2.26v-10.48c0-1.24-0.3-2.2-0.89-2.88c-0.6-0.69-1.42-1.03-2.48-1.03
		c-1.21,0-2.26,0.45-3.15,1.35c-0.89,0.9-1.52,2.12-1.9,3.67v9.37h-2.26v-12.98c0-0.4-0.07-0.74-0.22-0.99
		c-0.15-0.26-0.42-0.56-0.83-0.89l1.48-1.35c0.7,0.38,1.17,0.82,1.43,1.3c0.26,0.48,0.39,1.15,0.39,2.01v0.3
		c0.56-1.17,1.32-2.06,2.28-2.68c0.96-0.62,2.06-0.93,3.32-0.93C299.44,401.35,300.69,401.83,301.59,402.79z"/>
	<path d="M317.03,415.68c0.74-0.29,1.43-0.76,2.06-1.42l1.42,1.31c-0.72,0.81-1.57,1.4-2.56,1.79c-0.99,0.38-2.19,0.57-3.61,0.57
		c-2.16,0-3.84-0.51-5.04-1.53c-1.2-1.02-1.8-2.46-1.8-4.3v-5.12c0-1.73,0.59-3.1,1.77-4.1c1.18-1,2.8-1.5,4.87-1.5
		c2.11,0,3.74,0.53,4.87,1.58c1.13,1.06,1.7,2.55,1.7,4.48c0,1.24-0.23,2.08-0.69,2.55c-0.46,0.46-1.32,0.69-2.58,0.69h-7.69v1.42
		c0,1.35,0.39,2.35,1.16,3.02c0.78,0.66,1.96,0.99,3.56,0.99C315.43,416.12,316.29,415.97,317.03,415.68z M310.91,404.24
		c-0.78,0.71-1.16,1.67-1.16,2.88v1.92h6.74c0.76,0,1.28-0.13,1.55-0.39c0.27-0.26,0.4-0.75,0.4-1.47c0-1.26-0.38-2.24-1.15-2.95
		c-0.76-0.71-1.83-1.06-3.2-1.06C312.75,403.17,311.68,403.53,310.91,404.24z"/>
	<path d="M326.7,403.55v9.44c0,2,0.88,3,2.63,3h1.92v1.79h-1.92c-1.69,0-2.92-0.39-3.71-1.16c-0.79-0.78-1.18-1.98-1.18-3.62v-14.93
		c0-0.41-0.07-0.74-0.22-0.99c-0.15-0.26-0.42-0.56-0.83-0.89l1.52-1.35c0.67,0.38,1.14,0.81,1.4,1.3c0.26,0.48,0.39,1.15,0.39,2.01
		v3.61h4.55v1.82H326.7z"/>
	<path d="M349.41,416.96c-0.6-0.65-1.12-1.74-1.57-3.27l-5.87-19.72h2.43l5.83,19.69c0.2,0.72,0.42,1.24,0.66,1.55
		c0.24,0.32,0.52,0.47,0.86,0.47c0.31,0,0.58-0.15,0.81-0.45c0.22-0.3,0.45-0.83,0.67-1.57l5.83-19.69h2.46l-5.87,19.72
		c-0.45,1.51-0.98,2.59-1.58,3.25s-1.38,0.99-2.33,0.99C350.78,417.94,350,417.61,349.41,416.96z"/>
	<path d="M375.91,415.7c0.15,0.26,0.42,0.56,0.83,0.89l-1.52,1.35c-0.56-0.32-0.98-0.67-1.25-1.08c-0.27-0.41-0.43-0.93-0.47-1.59
		c-0.58,0.85-1.38,1.51-2.39,1.97c-1.01,0.46-2.15,0.69-3.4,0.69c-1.71,0-3.02-0.4-3.94-1.2c-0.92-0.8-1.38-1.95-1.38-3.45
		c0-1.39,0.48-2.48,1.45-3.27c0.97-0.79,2.43-1.29,4.38-1.52l2.63-0.3c0.74-0.09,1.3-0.2,1.67-0.34s0.62-0.33,0.76-0.59
		s0.19-0.62,0.17-1.1c-0.2-2.09-1.66-3.14-4.38-3.14c-1.01,0-1.88,0.16-2.6,0.49c-0.72,0.33-1.34,0.84-1.85,1.53l-1.55-1.15
		c1.06-1.71,3.06-2.56,6-2.56c2.16,0,3.8,0.46,4.94,1.38c1.13,0.92,1.7,2.25,1.7,3.98v7.99
		C375.69,415.11,375.76,415.44,375.91,415.7z M372.01,414.97c0.97-0.81,1.45-1.88,1.45-3.2v-2.73c-0.27,0.2-0.6,0.35-0.98,0.45
		s-0.91,0.19-1.58,0.25l-2.5,0.27c-1.28,0.16-2.25,0.51-2.92,1.06c-0.66,0.55-0.99,1.28-0.99,2.17c0,1.96,1.24,2.93,3.71,2.93
		C369.78,416.19,371.05,415.78,372.01,414.97z"/>
	<path d="M394.01,415.7c0.15,0.26,0.43,0.57,0.86,0.93l-1.52,1.31c-0.67-0.38-1.15-0.81-1.42-1.3c-0.27-0.48-0.41-1.15-0.41-2.01
		v-0.24c-0.56,1.15-1.33,2.02-2.29,2.63c-0.97,0.61-2.1,0.91-3.4,0.91c-1.64,0-2.91-0.49-3.81-1.47c-0.9-0.98-1.35-2.35-1.35-4.13
		v-10.62h2.26v10.48c0,1.26,0.31,2.23,0.93,2.9c0.62,0.67,1.49,1.01,2.61,1.01c1.21,0,2.26-0.44,3.15-1.31
		c0.89-0.88,1.52-2.08,1.9-3.61v-9.47h2.26v12.98C393.79,415.11,393.86,415.44,394.01,415.7z"/>
	<path d="M413.09,415.7c0.15,0.26,0.42,0.56,0.83,0.89l-1.48,1.35c-0.56-0.32-0.98-0.73-1.25-1.23c-0.27-0.51-0.43-1.03-0.47-1.57
		c-1.17,1.87-2.96,2.8-5.36,2.8c-1.39,0-2.61-0.32-3.66-0.96c-1.05-0.64-1.85-1.55-2.43-2.71c-0.57-1.17-0.86-2.53-0.86-4.08v-1.08
		c0-1.55,0.29-2.91,0.86-4.08c0.57-1.17,1.38-2.07,2.43-2.71c1.04-0.64,2.26-0.96,3.66-0.96c1.15,0,2.17,0.23,3.08,0.67
		c0.91,0.45,1.64,1.09,2.17,1.92v-7.55c0-0.41-0.07-0.73-0.2-0.98c-0.13-0.25-0.42-0.56-0.84-0.94l1.55-1.31
		c0.65,0.36,1.11,0.79,1.37,1.28c0.26,0.49,0.39,1.17,0.39,2.02v18.24C412.87,415.11,412.95,415.44,413.09,415.7z M410.61,406.82
		c-0.38-1.21-0.97-2.12-1.75-2.73c-0.79-0.61-1.83-0.91-3.13-0.91c-1.53,0-2.75,0.54-3.68,1.62c-0.92,1.08-1.38,2.52-1.38,4.31v1.08
		c0,1.8,0.46,3.24,1.38,4.31c0.92,1.08,2.15,1.62,3.68,1.62c1.3,0,2.35-0.3,3.13-0.91c0.79-0.61,1.37-1.52,1.75-2.73V406.82z"/>
	<path d="M419.23,416.34c-1.18-1.07-1.77-2.57-1.77-4.5v-4.38c0-1.93,0.59-3.43,1.77-4.5c1.18-1.07,2.83-1.6,4.94-1.6
		c2.11,0,3.76,0.53,4.94,1.6c1.18,1.07,1.77,2.57,1.77,4.5v4.38c0,1.93-0.59,3.43-1.77,4.5c-1.18,1.07-2.83,1.6-4.94,1.6
		C422.05,417.94,420.41,417.41,419.23,416.34z M427.45,415.01c0.78-0.74,1.16-1.8,1.16-3.17v-4.38c0-1.37-0.39-2.43-1.16-3.17
		c-0.78-0.74-1.87-1.11-3.29-1.11c-1.42,0-2.51,0.37-3.29,1.11c-0.78,0.74-1.16,1.8-1.16,3.17v4.38c0,1.37,0.39,2.43,1.16,3.17
		c0.78,0.74,1.87,1.11,3.29,1.11C425.58,416.12,426.68,415.75,427.45,415.01z"/>
	<path d="M435.97,397.68c-0.32-0.31-0.47-0.69-0.47-1.11c0-0.43,0.16-0.79,0.47-1.1c0.31-0.3,0.69-0.46,1.11-0.46
		s0.79,0.15,1.1,0.46c0.3,0.3,0.45,0.67,0.45,1.1c0,0.43-0.15,0.8-0.45,1.11c-0.3,0.32-0.67,0.47-1.1,0.47
		S436.28,397.99,435.97,397.68z M436.32,416.64c-0.26-0.48-0.39-1.15-0.39-2.01v-12.91h2.26v12.98c0,0.4,0.07,0.74,0.22,0.99
		c0.15,0.26,0.42,0.56,0.83,0.89l-1.48,1.35C437.06,417.56,436.58,417.13,436.32,416.64z"/>
	<path d="M445.25,417.3c-0.93-0.43-1.78-1.12-2.55-2.09l1.45-1.25c0.7,0.79,1.38,1.34,2.06,1.67c0.67,0.33,1.48,0.49,2.43,0.49
		c1.35,0,2.37-0.24,3.07-0.71c0.7-0.47,1.04-1.16,1.04-2.06c0-0.56-0.13-1.01-0.4-1.35c-0.27-0.34-0.74-0.63-1.42-0.88
		c-0.67-0.25-1.7-0.49-3.07-0.74c-3.15-0.56-4.72-2.07-4.72-4.52c0-1.42,0.51-2.52,1.53-3.32c1.02-0.8,2.43-1.2,4.23-1.2
		c1.28,0,2.4,0.22,3.35,0.66c0.95,0.44,1.68,1.07,2.17,1.9l-1.45,1.21c-0.52-0.67-1.11-1.17-1.77-1.48
		c-0.66-0.31-1.43-0.47-2.31-0.47c-1.12,0-2.01,0.24-2.65,0.71c-0.64,0.47-0.96,1.12-0.96,1.96c0,0.74,0.26,1.31,0.79,1.72
		c0.53,0.41,1.45,0.74,2.78,1.01c1.55,0.34,2.76,0.7,3.62,1.1c0.86,0.39,1.48,0.88,1.85,1.47s0.56,1.33,0.56,2.22
		c0,1.51-0.53,2.65-1.6,3.42c-1.07,0.78-2.62,1.16-4.67,1.16C447.32,417.94,446.19,417.73,445.25,417.3z"/>
	<path d="M225.08,450.27c-1.27-1.16-1.9-2.93-1.9-5.31v-9.51c0-2.38,0.63-4.15,1.9-5.31c1.27-1.16,3.22-1.74,5.85-1.74h8.12v1.96
		h-8.12c-1.82,0-3.16,0.42-4.03,1.25c-0.87,0.83-1.3,2.11-1.3,3.84v3.78h11.73v1.96H225.6v3.78c0,1.73,0.43,3.01,1.3,3.84
		c0.86,0.83,2.21,1.25,4.03,1.25h8.33v1.96h-8.33C228.3,452.01,226.35,451.43,225.08,450.27z"/>
	<path d="M254.69,436.85c1.03,0.71,1.81,1.65,2.33,2.81c0.52,1.17,0.78,2.46,0.78,3.88v1.08c0,1.42-0.26,2.71-0.78,3.88
		c-0.52,1.17-1.29,2.11-2.33,2.82c-1.03,0.71-2.29,1.06-3.78,1.06c-2.45,0-4.23-0.88-5.33-2.63v9.64h-2.26v-20.36
		c0-0.4-0.07-0.74-0.22-0.99c-0.15-0.26-0.42-0.56-0.83-0.89l1.48-1.35c0.58,0.34,1.02,0.71,1.3,1.11c0.28,0.41,0.43,0.91,0.45,1.52
		c1.19-1.75,2.99-2.63,5.39-2.63C252.4,435.79,253.66,436.14,254.69,436.85z M255.54,443.54c0-1.8-0.46-3.24-1.38-4.31
		c-0.92-1.08-2.15-1.62-3.67-1.62c-1.3,0-2.35,0.3-3.14,0.91c-0.79,0.61-1.37,1.52-1.75,2.73v5.66c0.38,1.21,0.97,2.12,1.75,2.73
		c0.79,0.61,1.83,0.91,3.14,0.91c1.53,0,2.75-0.54,3.67-1.62c0.92-1.08,1.38-2.52,1.38-4.31V443.54z"/>
	<path d="M274.53,450.14c0.15,0.26,0.42,0.56,0.83,0.89l-1.52,1.35c-0.56-0.32-0.98-0.67-1.25-1.08c-0.27-0.41-0.43-0.93-0.47-1.59
		c-0.58,0.86-1.38,1.51-2.39,1.97c-1.01,0.46-2.15,0.69-3.4,0.69c-1.71,0-3.02-0.4-3.94-1.2c-0.92-0.8-1.38-1.95-1.38-3.45
		c0-1.39,0.48-2.48,1.45-3.27c0.97-0.79,2.43-1.29,4.38-1.52l2.63-0.3c0.74-0.09,1.3-0.2,1.67-0.34c0.37-0.13,0.62-0.33,0.76-0.59
		c0.13-0.26,0.19-0.62,0.17-1.1c-0.2-2.09-1.66-3.14-4.38-3.14c-1.01,0-1.88,0.16-2.6,0.49c-0.72,0.33-1.34,0.84-1.85,1.53
		l-1.55-1.15c1.06-1.71,3.06-2.56,6-2.56c2.16,0,3.8,0.46,4.94,1.38c1.13,0.92,1.7,2.25,1.7,3.98v7.99
		C274.31,449.54,274.39,449.88,274.53,450.14z M270.64,449.41c0.97-0.81,1.45-1.88,1.45-3.2v-2.73c-0.27,0.2-0.6,0.35-0.98,0.45
		c-0.38,0.1-0.91,0.19-1.58,0.25l-2.49,0.27c-1.28,0.16-2.25,0.51-2.92,1.06c-0.66,0.55-0.99,1.28-0.99,2.17
		c0,1.96,1.24,2.93,3.71,2.93C268.4,450.62,269.67,450.22,270.64,449.41z"/>
	<path d="M292.64,450.14c0.15,0.26,0.43,0.57,0.86,0.93l-1.52,1.31c-0.67-0.38-1.15-0.81-1.42-1.3c-0.27-0.48-0.4-1.15-0.4-2.01
		v-0.24c-0.56,1.15-1.33,2.02-2.29,2.63c-0.97,0.61-2.1,0.91-3.4,0.91c-1.64,0-2.91-0.49-3.81-1.47c-0.9-0.98-1.35-2.35-1.35-4.13
		v-10.62h2.26v10.48c0,1.26,0.31,2.23,0.93,2.9c0.62,0.67,1.49,1.01,2.61,1.01c1.21,0,2.26-0.44,3.15-1.31
		c0.89-0.88,1.52-2.08,1.91-3.61v-9.47h2.26v12.98C292.42,449.54,292.49,449.88,292.64,450.14z"/>
	<path d="M298.64,451.08c-0.26-0.48-0.39-1.15-0.39-2.01V430.8c0-0.43-0.07-0.77-0.22-1.03c-0.15-0.26-0.42-0.54-0.83-0.86
		l1.48-1.35c0.7,0.38,1.17,0.82,1.43,1.3c0.26,0.48,0.39,1.15,0.39,2.01v18.27c0,0.4,0.07,0.74,0.22,0.99
		c0.15,0.26,0.42,0.56,0.83,0.89l-1.48,1.35C299.37,451.99,298.9,451.56,298.64,451.08z"/>
	<path d="M314.97,450.12c0.74-0.29,1.43-0.76,2.06-1.42l1.42,1.31c-0.72,0.81-1.57,1.4-2.56,1.79c-0.99,0.38-2.19,0.57-3.61,0.57
		c-2.16,0-3.84-0.51-5.04-1.53c-1.2-1.02-1.8-2.46-1.8-4.3v-5.12c0-1.73,0.59-3.1,1.77-4.1c1.18-1,2.8-1.5,4.87-1.5
		c2.11,0,3.74,0.53,4.87,1.58c1.14,1.06,1.7,2.55,1.7,4.48c0,1.24-0.23,2.08-0.69,2.55c-0.46,0.46-1.32,0.69-2.58,0.69h-7.69v1.42
		c0,1.35,0.39,2.35,1.16,3.02c0.78,0.66,1.96,0.99,3.56,0.99C313.38,450.56,314.23,450.41,314.97,450.12z M308.85,438.67
		c-0.78,0.71-1.16,1.67-1.16,2.88v1.92h6.74c0.76,0,1.28-0.13,1.55-0.39c0.27-0.26,0.41-0.75,0.41-1.47c0-1.26-0.38-2.24-1.15-2.95
		c-0.76-0.71-1.83-1.06-3.2-1.06C310.69,437.61,309.63,437.96,308.85,438.67z"/>
	<path d="M340.09,450.12c0.74-0.29,1.43-0.76,2.06-1.42l1.42,1.31c-0.72,0.81-1.57,1.4-2.56,1.79c-0.99,0.38-2.19,0.57-3.61,0.57
		c-2.16,0-3.84-0.51-5.04-1.53c-1.2-1.02-1.8-2.46-1.8-4.3v-5.12c0-1.73,0.59-3.1,1.77-4.1c1.18-1,2.8-1.5,4.87-1.5
		c2.11,0,3.74,0.53,4.87,1.58c1.13,1.06,1.7,2.55,1.7,4.48c0,1.24-0.23,2.08-0.69,2.55c-0.46,0.46-1.32,0.69-2.58,0.69h-7.69v1.42
		c0,1.35,0.39,2.35,1.16,3.02c0.78,0.66,1.96,0.99,3.56,0.99C338.49,450.56,339.34,450.41,340.09,450.12z M333.97,438.67
		c-0.78,0.71-1.16,1.67-1.16,2.88v1.92h6.74c0.76,0,1.28-0.13,1.55-0.39c0.27-0.26,0.4-0.75,0.4-1.47c0-1.26-0.38-2.24-1.15-2.95
		c-0.76-0.71-1.83-1.06-3.2-1.06C335.8,437.61,334.74,437.96,333.97,438.67z"/>
	<path d="M349.76,437.98v9.44c0,2,0.88,3,2.63,3h1.92v1.79h-1.92c-1.69,0-2.92-0.39-3.71-1.16c-0.79-0.78-1.18-1.98-1.18-3.62
		v-14.93c0-0.41-0.07-0.74-0.22-0.99c-0.15-0.26-0.42-0.56-0.83-0.89l1.52-1.35c0.67,0.38,1.14,0.81,1.4,1.3
		c0.26,0.48,0.39,1.15,0.39,2.01v3.61h4.55v1.82H349.76z"/>
	<path d="M368.66,450.19c-1.63-1.46-2.44-3.6-2.44-6.4v-7.18c0-2.76,0.79-4.88,2.38-6.35c1.58-1.47,3.87-2.21,6.86-2.21
		c1.96,0,3.63,0.31,5.02,0.93c1.39,0.62,2.54,1.58,3.44,2.88l-1.72,1.25c-0.79-1.06-1.71-1.84-2.78-2.34
		c-1.07-0.5-2.35-0.76-3.86-0.76c-2.25,0-3.96,0.56-5.14,1.69c-1.18,1.12-1.77,2.76-1.77,4.92v7.18c0,2.18,0.6,3.83,1.8,4.96
		c1.2,1.12,2.97,1.69,5.31,1.69c1.55,0,2.87-0.26,3.94-0.78s2.01-1.33,2.8-2.43l1.72,1.31c-1.01,1.35-2.18,2.33-3.51,2.93
		c-1.33,0.61-2.97,0.91-4.92,0.91C372.66,452.38,370.29,451.65,368.66,450.19z"/>
	<path d="M388.78,450.78c-1.18-1.07-1.77-2.57-1.77-4.5v-4.38c0-1.93,0.59-3.43,1.77-4.5c1.18-1.07,2.83-1.6,4.94-1.6
		c2.11,0,3.76,0.53,4.94,1.6c1.18,1.07,1.77,2.57,1.77,4.5v4.38c0,1.93-0.59,3.43-1.77,4.5c-1.18,1.07-2.83,1.6-4.94,1.6
		C391.61,452.38,389.96,451.84,388.78,450.78z M397.01,449.44c0.78-0.74,1.16-1.8,1.16-3.17v-4.38c0-1.37-0.39-2.43-1.16-3.17
		c-0.78-0.74-1.87-1.11-3.29-1.11s-2.51,0.37-3.29,1.11c-0.78,0.74-1.16,1.8-1.16,3.17v4.38c0,1.37,0.39,2.43,1.16,3.17
		c0.78,0.74,1.87,1.11,3.29,1.11S396.23,450.19,397.01,449.44z"/>
	<path d="M418.32,450.14c0.15,0.26,0.43,0.57,0.86,0.93l-1.52,1.31c-0.67-0.38-1.15-0.81-1.42-1.3c-0.27-0.48-0.41-1.15-0.41-2.01
		v-0.24c-0.56,1.15-1.33,2.02-2.29,2.63c-0.97,0.61-2.1,0.91-3.4,0.91c-1.64,0-2.91-0.49-3.81-1.47c-0.9-0.98-1.35-2.35-1.35-4.13
		v-10.62h2.26v10.48c0,1.26,0.31,2.23,0.93,2.9c0.62,0.67,1.49,1.01,2.61,1.01c1.21,0,2.26-0.44,3.15-1.31
		c0.89-0.88,1.52-2.08,1.9-3.61v-9.47h2.26v12.98C418.1,449.54,418.17,449.88,418.32,450.14z"/>
	<path d="M437.4,450.14c0.15,0.26,0.42,0.56,0.83,0.89l-1.48,1.35c-0.56-0.32-0.98-0.73-1.25-1.23c-0.27-0.51-0.43-1.03-0.47-1.57
		c-1.17,1.87-2.96,2.8-5.36,2.8c-1.39,0-2.61-0.32-3.66-0.96c-1.05-0.64-1.85-1.55-2.43-2.71c-0.57-1.17-0.86-2.53-0.86-4.08v-1.08
		c0-1.55,0.29-2.91,0.86-4.08c0.57-1.17,1.38-2.07,2.43-2.71c1.04-0.64,2.26-0.96,3.66-0.96c1.15,0,2.17,0.23,3.08,0.67
		c0.91,0.45,1.64,1.09,2.17,1.92v-7.55c0-0.41-0.07-0.73-0.2-0.98c-0.13-0.25-0.42-0.56-0.84-0.94l1.55-1.31
		c0.65,0.36,1.11,0.79,1.37,1.28c0.26,0.49,0.39,1.17,0.39,2.02v18.24C437.18,449.54,437.25,449.88,437.4,450.14z M434.92,441.25
		c-0.38-1.21-0.97-2.12-1.75-2.73c-0.79-0.61-1.83-0.91-3.13-0.91c-1.53,0-2.75,0.54-3.68,1.62s-1.38,2.52-1.38,4.31v1.08
		c0,1.8,0.46,3.24,1.38,4.31c0.92,1.08,2.15,1.62,3.68,1.62c1.3,0,2.35-0.3,3.13-0.91c0.79-0.61,1.37-1.52,1.75-2.73V441.25z"/>
	<path d="M451.3,450.12c0.74-0.29,1.43-0.76,2.06-1.42l1.42,1.31c-0.72,0.81-1.57,1.4-2.56,1.79c-0.99,0.38-2.19,0.57-3.61,0.57
		c-2.16,0-3.84-0.51-5.04-1.53c-1.2-1.02-1.8-2.46-1.8-4.3v-5.12c0-1.73,0.59-3.1,1.77-4.1c1.18-1,2.8-1.5,4.87-1.5
		c2.11,0,3.74,0.53,4.87,1.58c1.14,1.06,1.7,2.55,1.7,4.48c0,1.24-0.23,2.08-0.69,2.55c-0.46,0.46-1.32,0.69-2.58,0.69h-7.69v1.42
		c0,1.35,0.39,2.35,1.16,3.02c0.78,0.66,1.96,0.99,3.56,0.99C449.71,450.56,450.56,450.41,451.3,450.12z M445.18,438.67
		c-0.78,0.71-1.16,1.67-1.16,2.88v1.92h6.74c0.76,0,1.28-0.13,1.55-0.39c0.27-0.26,0.41-0.75,0.41-1.47c0-1.26-0.38-2.24-1.15-2.95
		c-0.76-0.71-1.83-1.06-3.2-1.06C447.02,437.61,445.96,437.96,445.18,438.67z"/>
</g>
</svg>
