<svg width="253" height="155" viewBox="0 0 253 155" fill="none" xmlns="http://www.w3.org/2000/svg">
<path d="M97.1149 66.0711C93.8174 63.1727 92.1628 58.938 92.1628 53.3669V39.0546C92.1628 33.4835 93.7885 29.2488 97.0455 26.3504C100.297 23.4521 105.006 22 111.155 22C115.39 22 118.89 22.6942 121.655 24.0711C124.421 25.4537 126.648 27.5479 128.343 30.3595L122.726 34.305C121.297 32.1645 119.729 30.614 118.011 29.6595C116.293 28.6992 114.031 28.219 111.225 28.219C103.779 28.219 100.054 31.8289 100.054 39.0546V53.3669C100.054 60.5868 103.82 64.2025 111.358 64.2025C114.343 64.2025 116.75 63.6876 118.584 62.6636C120.412 61.6397 121.997 60.0314 123.333 57.8504L128.95 61.9983C126.856 64.943 124.49 67.0835 121.864 68.4198C119.231 69.7562 115.755 70.4273 111.433 70.4273C105.185 70.4157 100.412 68.9694 97.1149 66.0711Z" fill="black"/>
<path d="M147.104 68.2752C145.698 66.8521 144.46 64.3297 143.39 60.7198L132.288 22.7983H140.179L150.882 60.5868C151.148 61.4777 151.426 62.1256 151.721 62.5248C152.01 62.924 152.398 63.1264 152.889 63.1264C153.335 63.1264 153.717 62.924 154.029 62.5248C154.341 62.1256 154.607 61.4777 154.833 60.5868L165.536 22.7983H173.426L162.325 60.7198C161.255 64.3297 160.017 66.8521 158.611 68.2752C157.205 69.7041 155.302 70.4157 152.895 70.4157C150.436 70.4157 148.51 69.7041 147.104 68.2752Z" fill="black"/>
<path d="M181.248 65.9669C178.662 63.5372 177.372 59.962 177.372 55.2297V37.1744C177.372 32.4479 178.662 28.8727 181.248 26.4372C183.834 24.0074 187.959 22.7925 193.622 22.7925H209.404V29.0116H193.622C190.77 29.0116 188.659 29.6711 187.305 30.9843C185.945 32.2975 185.263 34.3628 185.263 37.1686V43.1215H206.332V49.2768H185.263V55.2297C185.263 58.0413 185.94 60.1008 187.305 61.414C188.665 62.7273 190.77 63.3868 193.622 63.3868H209.676V69.6058H193.622C187.959 69.6116 183.834 68.4025 181.248 65.9669Z" fill="black"/>
<path d="M221.038 66.0711C217.741 63.1727 216.086 58.938 216.086 53.3669V39.0546C216.086 33.4835 217.712 29.2488 220.969 26.3504C224.22 23.4521 228.929 22 235.079 22C239.313 22 242.813 22.6942 245.579 24.0711C248.344 25.4537 250.571 27.5479 252.266 30.3595L246.649 34.305C245.22 32.1645 243.652 30.614 241.934 29.6595C240.216 28.6992 237.954 28.219 235.148 28.219C227.703 28.219 223.977 31.8289 223.977 39.0546V53.3669C223.977 60.5868 227.743 64.2025 235.281 64.2025C238.266 64.2025 240.673 63.6876 242.507 62.6636C244.335 61.6397 245.92 60.0314 247.256 57.8504L252.874 61.9983C250.779 64.943 248.413 67.0835 245.787 68.4198C243.155 69.7562 239.678 70.4273 235.35 70.4273C229.108 70.4157 224.341 68.9694 221.038 66.0711Z" fill="black"/>
<path d="M52.4769 132.056C40.5132 127.989 32.7264 122.1 25.2 116.402C18.9983 111.71 13.1438 107.278 5.2471 103.929C4.20578 103.518 3.54049 102.928 3.21652 102.141C2.64958 100.747 3.2628 98.971 3.67933 98.0396C9.42396 85.1735 27.3463 68.8421 27.5835 68.6223L28.5554 67.5925C33.2702 62.571 35.6479 56.9016 37.9446 51.4115C38.6041 49.8322 39.1942 48.1834 39.7612 46.581C41.8554 40.6743 44.0248 34.571 50.4694 30.8281C52.3785 29.7173 57.7182 27.2529 57.776 27.2297C58.2504 27.0099 58.476 26.4603 58.2851 25.9743C58.1 25.4884 57.562 25.2281 57.0645 25.3843C52.9802 26.657 50.0124 27.8719 47.7273 29.1967C37.8116 34.9529 34.4215 43.0347 31.1471 50.8562C28.9488 56.1033 26.8719 61.0611 22.8628 65.3363L21.8909 66.3719C10.4884 78.5149 7.04627 82.1826 0.821478 96.1132C-1.00084 100.197 0.289245 105.017 3.89338 107.574C5.77933 108.916 7.63636 110.449 9.59173 112.074C17.5174 118.635 27.381 126.803 51.3488 133.878C51.6033 133.954 51.9504 133.983 52.0893 133.994C52.1124 133.994 52.1355 134 52.1587 134C52.6273 134 53.038 133.67 53.1306 133.207C53.2289 132.704 52.9454 132.218 52.4769 132.056Z" fill="#878787"/>
<path d="M82.033 110.894C80.9396 107.29 79.7479 103.721 78.5909 100.261C74.819 88.986 71.2553 78.3356 70.8967 66.4067C70.862 65.348 71.1454 63.219 71.1454 63.2017C71.2091 62.7157 70.9082 62.2587 70.4396 62.1199C68.9934 61.6976 67.4719 62.2703 66.633 63.5835L65.7363 65.1339C59.0661 76.7215 52.1644 88.7025 30.962 102.668C30.5454 102.94 30.4008 103.478 30.6148 103.929C30.8347 104.374 31.3438 104.594 31.8182 104.438C35.8388 103.102 50.6198 93.8339 54.7215 90.0794C57.3248 87.8347 63.4975 81.7777 67.0901 76.5943C73.2107 101.054 79.638 111.224 80.419 111.924C80.6041 112.092 80.8413 112.179 81.0785 112.179C81.2636 112.179 81.4487 112.126 81.6107 112.022C81.9925 111.779 82.1603 111.317 82.033 110.894Z" fill="#878787"/>
<path d="M96.5884 92.3067C95.6455 91.4621 95.1769 90.2241 95.1769 88.6043V84.4506C95.1769 82.8539 95.6339 81.6274 96.5537 80.777C97.4678 79.9266 98.7926 79.4985 100.522 79.4985C101.656 79.4985 102.622 79.6778 103.426 80.0365C104.231 80.3952 104.896 80.9506 105.417 81.7026L104.422 82.4258C103.964 81.8125 103.432 81.3613 102.813 81.072C102.194 80.7828 101.454 80.6324 100.58 80.6324C99.2785 80.6324 98.2893 80.9563 97.6066 81.6101C96.924 82.258 96.5827 83.2067 96.5827 84.4563V88.61C96.5827 89.8712 96.9298 90.8258 97.624 91.4795C98.3182 92.1274 99.3422 92.4572 100.696 92.4572C101.593 92.4572 102.356 92.3068 102.975 92.0059C103.6 91.7051 104.138 91.2365 104.595 90.6001L105.59 91.358C105.006 92.139 104.329 92.7059 103.56 93.053C102.79 93.4059 101.841 93.5795 100.713 93.5795C98.9083 93.5737 97.5314 93.1514 96.5884 92.3067Z" fill="black"/>
<path d="M115.136 92.2777C115.222 92.4281 115.379 92.6017 115.616 92.7926L114.736 93.5736C114.412 93.3885 114.169 93.186 114.013 92.9488C113.857 92.7116 113.765 92.4108 113.741 92.0289C113.406 92.5207 112.943 92.9025 112.359 93.1686C111.774 93.4347 111.115 93.5678 110.392 93.5678C109.403 93.5678 108.645 93.3364 108.112 92.8736C107.58 92.4108 107.314 91.7455 107.314 90.8777C107.314 90.0736 107.592 89.443 108.153 88.986C108.714 88.529 109.559 88.2397 110.687 88.1066L112.208 87.9331C112.636 87.881 112.96 87.8174 113.174 87.7364C113.388 87.6612 113.533 87.5455 113.614 87.3951C113.689 87.2447 113.724 87.0364 113.712 86.7587C113.597 85.5496 112.752 84.9422 111.179 84.9422C110.594 84.9422 110.091 85.0347 109.674 85.2256C109.258 85.4166 108.899 85.7116 108.604 86.1108L107.707 85.4455C108.321 84.4562 109.478 83.9645 111.179 83.9645C112.428 83.9645 113.377 84.2306 114.036 84.7628C114.69 85.2951 115.02 86.0645 115.02 87.0653V91.6876C115.008 91.9364 115.055 92.1273 115.136 92.2777ZM112.885 91.8554C113.446 91.3868 113.724 90.7678 113.724 90.0041V88.4248C113.568 88.5405 113.377 88.6273 113.157 88.6851C112.937 88.743 112.631 88.7951 112.243 88.8298L110.803 88.986C110.062 89.0785 109.501 89.281 109.113 89.5992C108.731 89.9174 108.541 90.3397 108.541 90.8546C108.541 91.9884 109.258 92.5496 110.687 92.5496C111.589 92.5612 112.324 92.324 112.885 91.8554Z" fill="black"/>
<path d="M120.591 93.1917C120.07 92.9372 119.648 92.5669 119.324 92.0694V93.3537H118.016V81.1124C118.016 80.8636 117.976 80.6727 117.901 80.5281C117.82 80.3834 117.658 80.2099 117.415 80.0016L118.271 79.2438C118.659 79.4636 118.936 79.7124 119.092 79.9843C119.249 80.2562 119.324 80.6496 119.324 81.1529V85.5033C119.659 85.0115 120.088 84.6297 120.602 84.3694C121.117 84.1091 121.702 83.9818 122.367 83.9818C123.171 83.9818 123.883 84.1669 124.49 84.5372C125.103 84.9074 125.572 85.4338 125.902 86.1049C126.231 86.7818 126.399 87.5686 126.399 88.4652V89.09C126.399 89.9867 126.231 90.7735 125.902 91.4504C125.572 92.1272 125.103 92.6479 124.496 93.0182C123.888 93.3884 123.188 93.5735 122.378 93.5735C121.707 93.5735 121.112 93.4462 120.591 93.1917ZM124.276 91.5834C124.808 90.9586 125.074 90.1256 125.074 89.09V88.4652C125.074 87.4239 124.808 86.5909 124.276 85.9719C123.744 85.3471 123.032 85.0347 122.153 85.0347C121.401 85.0347 120.793 85.2082 120.336 85.5611C119.879 85.914 119.544 86.4405 119.324 87.1405V90.4148C119.544 91.1148 119.885 91.6413 120.336 91.9942C120.793 92.3471 121.395 92.5206 122.153 92.5206C123.032 92.5206 123.744 92.2082 124.276 91.5834Z" fill="black"/>
<path d="M129.153 81.8529C128.974 81.6736 128.881 81.4537 128.881 81.2108C128.881 80.962 128.974 80.7537 129.153 80.5744C129.332 80.4008 129.552 80.3083 129.795 80.3083C130.038 80.3083 130.252 80.3951 130.431 80.5744C130.605 80.748 130.692 80.962 130.692 81.2108C130.692 81.4595 130.605 81.6736 130.431 81.8529C130.258 82.038 130.044 82.1248 129.795 82.1248C129.546 82.1248 129.332 82.0322 129.153 81.8529ZM129.355 92.8215C129.205 92.5438 129.13 92.1562 129.13 91.6587V84.1901H130.437V91.6992C130.437 91.9306 130.478 92.1273 130.564 92.2719C130.651 92.4223 130.807 92.5959 131.045 92.7868L130.188 93.5678C129.783 93.3537 129.506 93.105 129.355 92.8215Z" fill="black"/>
<path d="M140.503 84.8091C141.024 85.3645 141.284 86.1281 141.284 87.1V93.3595H139.977V87.2967C139.977 86.5794 139.803 86.024 139.462 85.6306C139.115 85.2314 138.64 85.0347 138.027 85.0347C137.327 85.0347 136.72 85.2951 136.205 85.8157C135.69 86.3364 135.326 87.0422 135.106 87.9389V93.3595H133.798V85.8504C133.798 85.619 133.758 85.4223 133.671 85.2777C133.584 85.1273 133.428 84.9537 133.191 84.7628L134.047 83.9818C134.452 84.2017 134.724 84.4562 134.874 84.7339C135.025 85.0116 135.1 85.3992 135.1 85.8967V86.0703C135.424 85.3934 135.864 84.8785 136.419 84.5199C136.974 84.1612 137.611 83.9818 138.34 83.9818C139.26 83.9761 139.983 84.2538 140.503 84.8091Z" fill="black"/>
<path d="M149.436 92.2661C149.864 92.0984 150.263 91.8265 150.627 91.4447L151.449 92.2025C151.032 92.6711 150.541 93.0124 149.968 93.238C149.395 93.4579 148.701 93.5678 147.879 93.5678C146.63 93.5678 145.658 93.2727 144.964 92.6827C144.269 92.0926 143.922 91.2595 143.922 90.1951V87.2331C143.922 86.2323 144.264 85.4397 144.946 84.8612C145.629 84.2827 146.566 83.9934 147.764 83.9934C148.984 83.9934 149.927 84.3 150.581 84.9075C151.235 85.5207 151.565 86.3827 151.565 87.4992C151.565 88.2165 151.431 88.7025 151.165 88.9744C150.899 89.2405 150.402 89.3736 149.673 89.3736H145.224V90.1951C145.224 90.9761 145.45 91.5546 145.895 91.9422C146.346 92.324 147.029 92.5149 147.955 92.5149C148.51 92.5207 149.007 92.4339 149.436 92.2661ZM145.895 85.6479C145.444 86.0587 145.224 86.6141 145.224 87.3141V88.4248H149.123C149.563 88.4248 149.864 88.3496 150.02 88.1992C150.176 88.0488 150.251 87.7653 150.251 87.3488C150.251 86.6198 150.031 86.0529 149.586 85.6422C149.146 85.2314 148.527 85.029 147.735 85.029C146.96 85.029 146.341 85.2372 145.895 85.6479Z" fill="black"/>
<path d="M155.03 85.2488V90.71C155.03 91.867 155.539 92.4455 156.551 92.4455H157.662V93.481H156.551C155.574 93.481 154.862 93.2554 154.405 92.81C153.948 92.3587 153.722 91.6645 153.722 90.7157V82.0786C153.722 81.8414 153.682 81.6505 153.595 81.5058C153.508 81.3554 153.352 81.1819 153.115 80.991L153.994 80.21C154.382 80.4298 154.654 80.6786 154.804 80.962C154.955 81.2397 155.03 81.6273 155.03 82.1248V84.2133H157.662V85.2662H155.03V85.2488Z" fill="black"/>
<path d="M168.168 93.0067C167.821 92.6306 167.52 92.0001 167.26 91.1149L163.864 79.7067H165.269L168.642 91.0976C168.758 91.5141 168.885 91.8149 169.024 91.9943C169.163 92.1794 169.325 92.2662 169.521 92.2662C169.701 92.2662 169.857 92.1794 169.99 92.0058C170.117 91.8323 170.25 91.5257 170.378 91.0976L173.75 79.7067H175.174L171.778 91.1149C171.517 91.9885 171.211 92.6133 170.864 92.9951C170.517 93.3769 170.065 93.5678 169.516 93.5678C168.96 93.5736 168.509 93.3827 168.168 93.0067Z" fill="black"/>
<path d="M183.498 92.2777C183.585 92.4281 183.741 92.6017 183.979 92.7926L183.099 93.5736C182.775 93.3885 182.532 93.186 182.376 92.9488C182.22 92.7116 182.127 92.4108 182.104 92.0289C181.769 92.5207 181.306 92.9025 180.721 93.1686C180.137 93.4347 179.478 93.5678 178.755 93.5678C177.765 93.5678 177.007 93.3364 176.475 92.8736C175.943 92.4108 175.677 91.7455 175.677 90.8777C175.677 90.0736 175.955 89.443 176.516 88.986C177.077 88.529 177.922 88.2397 179.05 88.1066L180.571 87.9331C180.999 87.881 181.323 87.8174 181.537 87.7364C181.751 87.6554 181.896 87.5455 181.977 87.3951C182.058 87.2447 182.087 87.0364 182.075 86.7587C181.96 85.5496 181.115 84.9422 179.541 84.9422C178.957 84.9422 178.454 85.0347 178.037 85.2256C177.621 85.4166 177.262 85.7116 176.967 86.1108L176.07 85.4455C176.683 84.4562 177.841 83.9645 179.541 83.9645C180.791 83.9645 181.74 84.2306 182.399 84.7628C183.053 85.2951 183.383 86.0645 183.383 87.0653V91.6876C183.371 91.9364 183.412 92.1273 183.498 92.2777ZM181.242 91.8554C181.803 91.3868 182.081 90.7678 182.081 90.0041V88.4248C181.925 88.5405 181.734 88.6273 181.514 88.6851C181.294 88.743 180.988 88.7951 180.6 88.8298L179.154 88.986C178.413 89.0785 177.852 89.281 177.464 89.5992C177.083 89.9174 176.892 90.3397 176.892 90.8546C176.892 91.9884 177.609 92.5496 179.038 92.5496C179.952 92.5612 180.687 92.324 181.242 91.8554Z" fill="black"/>
<path d="M193.969 92.2777C194.056 92.4281 194.218 92.6075 194.467 92.8157L193.588 93.5736C193.2 93.3538 192.922 93.105 192.766 92.8215C192.61 92.5438 192.529 92.1562 192.529 91.6587V91.5199C192.205 92.1852 191.759 92.6885 191.204 93.0414C190.643 93.3942 189.989 93.5678 189.237 93.5678C188.288 93.5678 187.554 93.2843 187.033 92.7174C186.512 92.1504 186.252 91.3579 186.252 90.3281V84.1843H187.559V90.2471C187.559 90.9761 187.739 91.5372 188.097 91.9248C188.456 92.3124 188.959 92.5091 189.607 92.5091C190.307 92.5091 190.915 92.2546 191.43 91.7513C191.945 91.2422 192.309 90.548 192.529 89.6628V84.1843H193.836V91.6934C193.842 91.9364 193.883 92.1273 193.969 92.2777Z" fill="black"/>
<path d="M205.007 92.2777C205.094 92.4281 205.25 92.6016 205.488 92.7925L204.631 93.5735C204.307 93.3884 204.064 93.1512 203.908 92.8619C203.752 92.5669 203.659 92.2661 203.636 91.9537C202.959 93.0355 201.924 93.5735 200.535 93.5735C199.731 93.5735 199.026 93.3884 198.418 93.0182C197.811 92.6479 197.348 92.1214 197.012 91.4504C196.683 90.7735 196.515 89.9867 196.515 89.09V88.4652C196.515 87.5686 196.683 86.7818 197.012 86.1049C197.342 85.4281 197.811 84.9074 198.418 84.5372C199.02 84.1669 199.726 83.9818 200.535 83.9818C201.201 83.9818 201.791 84.1148 202.317 84.3694C202.844 84.6297 203.266 85 203.573 85.4801V81.1124C203.573 80.8752 203.532 80.6901 203.457 80.5454C203.382 80.4008 203.214 80.2215 202.971 80.0016L203.868 79.2438C204.244 79.452 204.51 79.7008 204.66 79.9843C204.811 80.2677 204.886 80.6611 204.886 81.1529V91.7049C204.88 91.9363 204.926 92.1272 205.007 92.2777ZM203.573 87.1405C203.353 86.4405 203.012 85.914 202.56 85.5611C202.103 85.2082 201.502 85.0347 200.75 85.0347C199.864 85.0347 199.159 85.3471 198.621 85.9719C198.088 86.5967 197.822 87.4297 197.822 88.4652V89.09C197.822 90.1314 198.088 90.9644 198.621 91.5834C199.153 92.2082 199.864 92.5206 200.75 92.5206C201.502 92.5206 202.109 92.3471 202.56 91.9942C203.017 91.6413 203.353 91.1148 203.573 90.4148V87.1405Z" fill="black"/>
<path d="M208.56 92.6479C207.877 92.0289 207.536 91.1612 207.536 90.0446V87.5107C207.536 86.3942 207.877 85.5264 208.56 84.9074C209.242 84.2884 210.197 83.9818 211.417 83.9818C212.638 83.9818 213.593 84.2884 214.275 84.9074C214.958 85.5264 215.299 86.3942 215.299 87.5107V90.0446C215.299 91.1612 214.958 92.0289 214.275 92.6479C213.593 93.2669 212.638 93.5736 211.417 93.5736C210.191 93.5736 209.242 93.2669 208.56 92.6479ZM213.315 91.8785C213.766 91.4504 213.986 90.8372 213.986 90.0446V87.5107C213.986 86.7182 213.76 86.105 213.315 85.6769C212.864 85.2488 212.233 85.0347 211.412 85.0347C210.59 85.0347 209.959 85.2488 209.508 85.6769C209.057 86.105 208.837 86.7182 208.837 87.5107V90.0446C208.837 90.8372 209.063 91.4504 209.508 91.8785C209.959 92.3066 210.59 92.5207 211.412 92.5207C212.233 92.5207 212.869 92.3066 213.315 91.8785Z" fill="black"/>
<path d="M218.244 81.8529C218.059 81.6736 217.972 81.4537 217.972 81.2108C217.972 80.962 218.064 80.7537 218.244 80.5744C218.423 80.4008 218.643 80.3083 218.886 80.3083C219.129 80.3083 219.343 80.3951 219.522 80.5744C219.696 80.748 219.783 80.962 219.783 81.2108C219.783 81.4595 219.696 81.6736 219.522 81.8529C219.349 82.038 219.135 82.1248 218.886 82.1248C218.637 82.1248 218.423 82.0322 218.244 81.8529ZM218.446 92.8215C218.296 92.5438 218.221 92.1562 218.221 91.6587V84.1901H219.528V91.6992C219.528 91.9306 219.569 92.1273 219.655 92.2719C219.742 92.4223 219.898 92.5959 220.135 92.7868L219.279 93.5678C218.874 93.3537 218.597 93.105 218.446 92.8215Z" fill="black"/>
<path d="M223.612 93.2033C223.074 92.9545 222.583 92.5553 222.137 91.9942L222.976 91.271C223.381 91.7281 223.774 92.0463 224.168 92.2372C224.555 92.4281 225.024 92.5206 225.574 92.5206C226.355 92.5206 226.945 92.3818 227.35 92.1099C227.755 91.838 227.951 91.4388 227.951 90.9182C227.951 90.5942 227.876 90.3339 227.72 90.1372C227.564 89.9405 227.292 89.7727 226.898 89.6281C226.511 89.4834 225.915 89.3446 225.122 89.2C223.3 88.876 222.392 88.0024 222.392 86.5851C222.392 85.7636 222.687 85.1272 223.277 84.6644C223.867 84.2016 224.683 83.9702 225.724 83.9702C226.464 83.9702 227.112 84.0975 227.662 84.352C228.212 84.6066 228.634 84.971 228.917 85.4512L228.079 86.1512C227.778 85.7636 227.436 85.4744 227.055 85.295C226.673 85.1157 226.227 85.0231 225.718 85.0231C225.07 85.0231 224.555 85.1619 224.185 85.4339C223.815 85.7058 223.63 86.0818 223.63 86.5677C223.63 86.9958 223.78 87.3256 224.087 87.5628C224.393 87.8 224.926 87.9909 225.695 88.1471C226.592 88.3438 227.292 88.552 227.789 88.7834C228.287 89.0091 228.645 89.2925 228.86 89.6339C229.074 89.9752 229.183 90.4033 229.183 90.9182C229.183 91.7917 228.877 92.4512 228.258 92.8967C227.639 93.3479 226.742 93.5677 225.556 93.5677C224.81 93.5735 224.156 93.452 223.612 93.2033Z" fill="black"/>
<path d="M96.2413 112.277C95.5066 111.606 95.1421 110.582 95.1421 109.205V103.703C95.1421 102.326 95.5066 101.303 96.2413 100.631C96.976 99.9604 98.1041 99.6248 99.6256 99.6248H104.323V100.759H99.6256C98.5727 100.759 97.7975 101.002 97.2942 101.482C96.7909 101.962 96.5421 102.703 96.5421 103.703V105.89H103.328V107.024H96.5421V109.211C96.5421 110.212 96.7909 110.952 97.2942 111.432C97.7917 111.912 98.5727 112.155 99.6256 112.155H104.445V113.289H99.6256C98.1041 113.283 96.976 112.948 96.2413 112.277Z" fill="black"/>
<path d="M113.371 104.513C113.967 104.924 114.418 105.468 114.719 106.139C115.02 106.816 115.17 107.562 115.17 108.383V109.008C115.17 109.83 115.02 110.576 114.719 111.253C114.418 111.93 113.973 112.474 113.371 112.884C112.775 113.295 112.046 113.498 111.184 113.498C109.767 113.498 108.737 112.988 108.101 111.976V117.553H106.793V105.774C106.793 105.543 106.753 105.346 106.666 105.202C106.579 105.051 106.423 104.878 106.186 104.687L107.042 103.906C107.378 104.102 107.632 104.317 107.794 104.548C107.956 104.785 108.043 105.074 108.055 105.427C108.743 104.415 109.784 103.906 111.173 103.906C112.046 103.9 112.775 104.102 113.371 104.513ZM113.863 108.383C113.863 107.342 113.597 106.509 113.064 105.89C112.532 105.265 111.821 104.953 110.941 104.953C110.189 104.953 109.582 105.126 109.125 105.479C108.668 105.832 108.332 106.359 108.112 107.059V110.333C108.332 111.033 108.674 111.559 109.125 111.912C109.582 112.265 110.183 112.439 110.941 112.439C111.826 112.439 112.532 112.126 113.064 111.502C113.597 110.877 113.863 110.044 113.863 109.008V108.383Z" fill="black"/>
<path d="M124.849 112.202C124.936 112.352 125.092 112.526 125.329 112.717L124.45 113.498C124.126 113.312 123.883 113.11 123.727 112.873C123.57 112.636 123.478 112.335 123.455 111.953C123.119 112.45 122.656 112.826 122.072 113.093C121.488 113.359 120.828 113.492 120.105 113.492C119.116 113.492 118.358 113.26 117.826 112.798C117.293 112.335 117.027 111.669 117.027 110.802C117.027 109.998 117.305 109.367 117.866 108.91C118.427 108.453 119.272 108.164 120.4 108.031L121.922 107.857C122.35 107.805 122.674 107.741 122.888 107.66C123.102 107.585 123.246 107.469 123.327 107.319C123.403 107.169 123.437 106.96 123.426 106.683C123.31 105.474 122.465 104.866 120.892 104.866C120.308 104.866 119.804 104.959 119.388 105.15C118.971 105.341 118.612 105.636 118.317 106.035L117.421 105.369C118.034 104.38 119.191 103.888 120.892 103.888C122.141 103.888 123.09 104.155 123.75 104.687C124.403 105.219 124.733 105.988 124.733 106.989V111.612C124.722 111.855 124.768 112.051 124.849 112.202ZM122.598 111.779C123.16 111.311 123.437 110.692 123.437 109.928V108.349C123.281 108.464 123.09 108.551 122.87 108.609C122.65 108.667 122.344 108.719 121.956 108.754L120.516 108.91C119.775 109.002 119.214 109.205 118.827 109.523C118.445 109.841 118.254 110.264 118.254 110.779C118.254 111.912 118.971 112.474 120.4 112.474C121.303 112.479 122.037 112.248 122.598 111.779Z" fill="black"/>
<path d="M135.326 112.202C135.412 112.352 135.574 112.531 135.823 112.74L134.944 113.498C134.556 113.278 134.278 113.029 134.122 112.745C133.966 112.468 133.891 112.08 133.891 111.583V111.444C133.567 112.109 133.121 112.612 132.566 112.965C132.005 113.318 131.351 113.492 130.599 113.492C129.65 113.492 128.916 113.208 128.395 112.641C127.874 112.074 127.614 111.282 127.614 110.252V104.108H128.921V110.171C128.921 110.9 129.101 111.461 129.459 111.849C129.818 112.236 130.321 112.433 130.969 112.433C131.669 112.433 132.277 112.179 132.792 111.675C133.307 111.166 133.671 110.472 133.897 109.587V104.108H135.204V111.617C135.198 111.855 135.239 112.051 135.326 112.202Z" fill="black"/>
<path d="M138.797 112.745C138.646 112.468 138.571 112.08 138.571 111.583V101.013C138.571 100.764 138.531 100.568 138.444 100.417C138.357 100.267 138.201 100.105 137.964 99.9198L138.82 99.1388C139.225 99.3586 139.497 99.6132 139.647 99.8909C139.797 100.169 139.873 100.556 139.873 101.054V111.623C139.873 111.855 139.913 112.051 140 112.196C140.087 112.346 140.243 112.52 140.48 112.711L139.624 113.492C139.219 113.272 138.947 113.023 138.797 112.745Z" fill="black"/>
<path d="M148.244 112.19C148.672 112.022 149.071 111.75 149.436 111.369L150.257 112.126C149.841 112.595 149.349 112.936 148.776 113.162C148.203 113.382 147.509 113.492 146.688 113.492C145.438 113.492 144.466 113.197 143.772 112.607C143.078 112.017 142.731 111.183 142.731 110.119V107.157C142.731 106.156 143.072 105.364 143.755 104.785C144.437 104.207 145.374 103.917 146.572 103.917C147.793 103.917 148.736 104.224 149.389 104.831C150.049 105.445 150.373 106.307 150.373 107.423C150.373 108.14 150.24 108.626 149.974 108.898C149.707 109.164 149.21 109.298 148.481 109.298H144.032V110.119C144.032 110.9 144.258 111.479 144.703 111.866C145.155 112.248 145.837 112.439 146.763 112.439C147.324 112.445 147.816 112.358 148.244 112.19ZM144.703 105.566C144.252 105.977 144.032 106.532 144.032 107.232V108.343H147.931C148.371 108.343 148.672 108.268 148.828 108.117C148.984 107.967 149.065 107.683 149.065 107.267C149.065 106.538 148.845 105.971 148.4 105.56C147.96 105.15 147.341 104.947 146.549 104.947C145.768 104.953 145.155 105.155 144.703 105.566Z" fill="black"/>
<path d="M162.776 112.19C163.204 112.022 163.603 111.75 163.968 111.369L164.789 112.126C164.373 112.595 163.881 112.936 163.308 113.162C162.735 113.382 162.041 113.492 161.22 113.492C159.97 113.492 158.998 113.197 158.304 112.607C157.61 112.017 157.263 111.183 157.263 110.119V107.157C157.263 106.156 157.604 105.364 158.287 104.785C158.969 104.207 159.907 103.917 161.104 103.917C162.325 103.917 163.268 104.224 163.921 104.831C164.575 105.445 164.905 106.307 164.905 107.423C164.905 108.14 164.772 108.626 164.506 108.898C164.24 109.164 163.742 109.298 163.013 109.298H158.564V110.119C158.564 110.9 158.79 111.479 159.235 111.866C159.687 112.248 160.369 112.439 161.295 112.439C161.85 112.445 162.342 112.358 162.776 112.19ZM159.235 105.566C158.784 105.977 158.564 106.532 158.564 107.232V108.343H162.464C162.903 108.343 163.204 108.268 163.36 108.117C163.516 107.967 163.592 107.683 163.592 107.267C163.592 106.538 163.372 105.971 162.926 105.56C162.487 105.15 161.868 104.947 161.075 104.947C160.294 104.953 159.681 105.155 159.235 105.566Z" fill="black"/>
<path d="M168.37 105.167V110.628C168.37 111.785 168.879 112.364 169.892 112.364H171.002V113.399H169.892C168.914 113.399 168.202 113.174 167.745 112.728C167.288 112.277 167.063 111.583 167.063 110.634V101.997C167.063 101.76 167.022 101.569 166.936 101.424C166.849 101.274 166.693 101.1 166.455 100.909L167.335 100.128C167.722 100.348 167.994 100.597 168.145 100.88C168.295 101.158 168.37 101.545 168.37 102.043V104.131H171.002V105.184H168.37V105.167Z" fill="black"/>
<path d="M179.304 112.231C178.361 111.386 177.893 110.148 177.893 108.528V104.374C177.893 102.778 178.35 101.551 179.269 100.701C180.183 99.8504 181.508 99.4223 183.238 99.4223C184.372 99.4223 185.338 99.6017 186.142 99.9603C186.946 100.319 187.612 100.874 188.132 101.626L187.137 102.35C186.68 101.736 186.148 101.285 185.529 100.996C184.91 100.707 184.169 100.556 183.296 100.556C181.994 100.556 181.005 100.88 180.322 101.534C179.64 102.182 179.298 103.131 179.298 104.38V108.534C179.298 109.795 179.645 110.75 180.34 111.403C181.034 112.051 182.058 112.381 183.412 112.381C184.308 112.381 185.072 112.231 185.691 111.93C186.31 111.629 186.854 111.16 187.311 110.524L188.306 111.282C187.722 112.063 187.045 112.63 186.275 112.977C185.506 113.33 184.557 113.503 183.429 113.503C181.618 113.498 180.247 113.075 179.304 112.231Z" fill="black"/>
<path d="M190.944 112.572C190.261 111.953 189.92 111.085 189.92 109.969V107.435C189.92 106.318 190.261 105.45 190.944 104.831C191.626 104.212 192.581 103.906 193.802 103.906C195.022 103.906 195.977 104.212 196.659 104.831C197.342 105.45 197.683 106.318 197.683 107.435V109.969C197.683 111.085 197.342 111.953 196.659 112.572C195.977 113.191 195.022 113.498 193.802 113.498C192.581 113.498 191.626 113.185 190.944 112.572ZM195.705 111.797C196.156 111.369 196.376 110.755 196.376 109.963V107.429C196.376 106.636 196.15 106.023 195.705 105.595C195.254 105.167 194.623 104.953 193.802 104.953C192.98 104.953 192.35 105.167 191.898 105.595C191.447 106.023 191.227 106.636 191.227 107.429V109.963C191.227 110.755 191.453 111.369 191.898 111.797C192.35 112.225 192.98 112.439 193.802 112.439C194.623 112.439 195.254 112.231 195.705 111.797Z" fill="black"/>
<path d="M208.033 112.202C208.12 112.352 208.282 112.531 208.531 112.74L207.651 113.498C207.264 113.278 206.986 113.029 206.83 112.745C206.674 112.468 206.593 112.08 206.593 111.583V111.444C206.269 112.109 205.823 112.612 205.268 112.965C204.707 113.318 204.053 113.492 203.301 113.492C202.352 113.492 201.617 113.208 201.097 112.641C200.576 112.074 200.316 111.282 200.316 110.252V104.108H201.623V110.171C201.623 110.9 201.803 111.461 202.161 111.849C202.52 112.236 203.023 112.433 203.671 112.433C204.371 112.433 204.979 112.179 205.493 111.675C206.008 111.166 206.373 110.472 206.593 109.587V104.108H207.9V111.617C207.906 111.855 207.946 112.051 208.033 112.202Z" fill="black"/>
<path d="M219.071 112.202C219.158 112.352 219.314 112.526 219.551 112.717L218.695 113.498C218.371 113.312 218.128 113.075 217.972 112.786C217.816 112.491 217.723 112.19 217.7 111.878C217.023 112.96 215.988 113.498 214.599 113.498C213.795 113.498 213.089 113.312 212.482 112.942C211.874 112.572 211.412 112.045 211.076 111.374C210.746 110.698 210.579 109.911 210.579 109.014V108.389C210.579 107.493 210.746 106.706 211.076 106.029C211.406 105.352 211.874 104.831 212.482 104.461C213.084 104.091 213.789 103.906 214.599 103.906C215.265 103.906 215.855 104.039 216.381 104.293C216.907 104.554 217.33 104.924 217.636 105.404V101.036C217.636 100.799 217.596 100.614 217.521 100.469C217.445 100.325 217.278 100.145 217.035 99.9257L217.931 99.1678C218.307 99.3761 218.574 99.6248 218.724 99.9083C218.874 100.192 218.95 100.585 218.95 101.077V111.629C218.944 111.855 218.984 112.051 219.071 112.202ZM217.636 107.059C217.417 106.359 217.075 105.832 216.624 105.479C216.167 105.126 215.565 104.953 214.813 104.953C213.928 104.953 213.222 105.265 212.684 105.89C212.146 106.515 211.886 107.348 211.886 108.384V109.008C211.886 110.05 212.152 110.883 212.684 111.502C213.217 112.126 213.928 112.439 214.813 112.439C215.565 112.439 216.173 112.265 216.624 111.912C217.081 111.56 217.417 111.033 217.636 110.333V107.059Z" fill="black"/>
<path d="M227.112 112.19C227.54 112.022 227.94 111.75 228.304 111.369L229.126 112.126C228.709 112.595 228.217 112.936 227.645 113.162C227.072 113.382 226.378 113.492 225.556 113.492C224.307 113.492 223.335 113.197 222.64 112.607C221.946 112.017 221.599 111.183 221.599 110.119V107.157C221.599 106.156 221.94 105.364 222.623 104.785C223.306 104.207 224.243 103.917 225.44 103.917C226.661 103.917 227.604 104.224 228.258 104.831C228.917 105.445 229.241 106.307 229.241 107.423C229.241 108.14 229.108 108.626 228.842 108.898C228.576 109.164 228.078 109.298 227.35 109.298H222.901V110.119C222.901 110.9 223.126 111.479 223.572 111.866C224.023 112.248 224.706 112.439 225.631 112.439C226.193 112.445 226.684 112.358 227.112 112.19ZM223.572 105.566C223.121 105.977 222.901 106.532 222.901 107.232V108.343H226.8C227.24 108.343 227.54 108.268 227.697 108.117C227.853 107.967 227.934 107.683 227.934 107.267C227.934 106.538 227.714 105.971 227.269 105.56C226.829 105.15 226.21 104.947 225.417 104.947C224.636 104.953 224.023 105.155 223.572 105.566Z" fill="black"/>
</svg>
