<?xml version="1.0" standalone="no"?>
<!DOCTYPE svg PUBLIC "-//W3C//DTD SVG 20010904//EN"
 "http://www.w3.org/TR/2001/REC-SVG-20010904/DTD/svg10.dtd">
<svg version="1.0" xmlns="http://www.w3.org/2000/svg"
 width="260.000000pt" height="260.000000pt" viewBox="0 0 260.000000 260.000000"
 preserveAspectRatio="xMidYMid meet">
<metadata>
Created by potrace 1.14, written by Peter Selinger 2001-2017
</metadata>
<g transform="translate(0.000000,260.000000) scale(0.100000,-0.100000)"
fill="#000000" stroke="none">
<path d="M0 1300 l0 -1300 1300 0 1300 0 0 1300 0 1300 -1300 0 -1300 0 0
-1300z m1545 930 c3 -5 -30 -28 -75 -50 -134 -67 -182 -126 -243 -295 -83
-230 -116 -282 -290 -464 -167 -174 -278 -316 -327 -415 -42 -85 -36 -103 53
-145 77 -37 195 -114 372 -245 120 -88 277 -178 383 -219 42 -16 50 -37 13
-37 -26 0 -204 62 -311 109 -160 70 -253 130 -448 289 -124 101 -137 119 -137
188 0 44 9 71 57 166 69 134 109 189 258 353 141 155 149 168 226 343 108 244
195 341 368 407 67 26 92 30 101 15z m221 -680 c3 -169 31 -298 129 -599 37
-111 64 -206 60 -209 -27 -28 -104 122 -179 353 -31 94 -61 190 -67 215 l-11
44 -21 -29 c-11 -17 -68 -78 -126 -136 -109 -108 -229 -195 -389 -281 -67 -36
-83 -41 -94 -30 -11 11 -10 15 2 22 8 4 61 42 117 84 191 143 323 290 447 501
64 109 81 127 111 123 17 -3 20 -11 21 -58z"/>
</g>
</svg>
